<svg width="1122" height="900" viewBox="0 0 1122 900" fill="none" xmlns="http://www.w3.org/2000/svg">
<mask id="mask0_395_113" style="mask-type:alpha" maskUnits="userSpaceOnUse" x="0" y="-8" width="1183" height="1003">
<g opacity="0.179993">
<path d="M0 -7.43958H1182.85V994.594H0V-7.43958Z" fill="black"/>
</g>
</mask>
<g mask="url(#mask0_395_113)">
<g opacity="0.179993">
<path d="M5.68891 946.776C-22.2877 776.014 55.225 703.399 187.549 720.208C395.29 746.598 177.056 481.684 434.105 451.942C614.712 431.046 834.251 263.019 865 147.931C895.747 32.8431 1076.9 -54.5902 1159.44 20.601C1241.98 95.7943 1079.75 767.058 1079.75 767.058L179.97 994.594L5.68891 946.776Z" fill="#99DEFE"/>
</g>
</g>
<path d="M127.253 944.195C74.7675 807.214 144.712 752.309 218.156 769.27C291.6 786.231 383.895 708.205 312.684 515.233C241.472 322.259 448.176 192.721 593.234 235.854C738.289 278.988 804.856 -131.529 1049.34 237.158C1276.32 579.44 1081.99 976.251 1081.99 976.251L127.253 944.195Z" fill="#CBEDFF"/>
<mask id="mask1_395_113" style="mask-type:alpha" maskUnits="userSpaceOnUse" x="108" y="82" width="1052" height="865">
<g opacity="0.179993">
<path d="M108.971 82.1636H1159.44V946.776H108.971V82.1636Z" fill="black"/>
</g>
</mask>
<g mask="url(#mask1_395_113)">
<g opacity="0.179993">
<path d="M311.7 856.452C381.645 880.932 503.253 757.538 441.1 576.098C378.944 394.658 497.377 283.992 612.465 339.9C727.555 395.809 759.491 120.498 897.495 183.226C993.669 226.942 1070.61 338.155 1112.58 469.653C1134.04 536.903 1139.49 676.772 1139.7 797.402C1171 650.3 1180.31 434.656 1049.34 237.157C804.854 -131.53 738.287 278.987 593.232 235.855C448.174 192.72 241.47 322.258 312.681 515.232C383.895 708.206 291.598 786.23 218.154 769.269C144.712 752.308 74.7652 807.215 127.251 944.196L204.151 946.776C186.962 856.818 250.003 834.857 311.7 856.452Z" fill="#99DEFE"/>
</g>
</g>
<path d="M1029.23 508.946C1047.97 508.946 1049.01 480.74 1030.29 479.83C1029.78 479.806 1029.26 479.792 1028.74 479.792C1025.4 479.792 1022.19 480.322 1019.17 481.291C1016.66 466.024 1003.41 454.374 987.436 454.374C971.107 454.374 957.631 466.542 955.558 482.306C951.684 480.449 947.347 479.408 942.762 479.408C940.201 479.408 937.716 479.732 935.346 480.342C918.957 484.563 922.398 508.946 939.321 508.946H1029.23Z" fill="#99DEFE"/>
<path d="M1108.22 829.733C1108.22 815.174 919.439 803.372 686.57 803.372C453.701 803.372 264.926 815.174 264.926 829.733C264.926 844.292 453.701 856.094 686.57 856.094C919.439 856.094 1108.22 844.292 1108.22 829.733Z" fill="#E1F5FF"/>
<path d="M619.078 834.022C619.078 831.1 585.817 828.731 544.792 828.731C503.767 828.731 470.506 831.1 470.506 834.022C470.506 836.945 503.767 839.313 544.792 839.313C585.817 839.313 619.078 836.945 619.078 834.022Z" fill="#CBEDFF"/>
<path d="M935.527 451.942H466.036C456.209 451.942 448.246 459.906 448.246 469.732V793.064C448.246 802.887 456.209 810.852 466.036 810.852H935.527C945.352 810.852 953.317 802.887 953.317 793.064V469.732C953.317 459.906 945.352 451.942 935.527 451.942Z" fill="#005CAF"/>
<path d="M487.258 784.319V478.478C487.258 476.648 488.741 475.164 490.569 475.164H882.568C884.398 475.164 885.881 476.648 885.881 478.478V784.319C885.881 786.147 884.398 787.63 882.568 787.63H490.569C488.741 787.63 487.258 786.147 487.258 784.319Z" fill="#CBEDFF"/>
<path d="M882.907 475.165H490.236C488.594 475.165 487.26 476.499 487.26 478.141V486.649H869.125C870.765 486.649 872.102 487.983 872.102 489.626V787.631H882.907C884.547 787.631 885.883 786.297 885.883 784.654V478.141C885.883 476.499 884.547 475.165 882.907 475.165Z" fill="#99DEFE"/>
<path d="M935.516 631.397C935.516 622.42 928.239 615.142 919.263 615.142C910.283 615.142 903.006 622.42 903.006 631.397C903.006 640.375 910.283 647.652 919.263 647.652C928.239 647.652 935.516 640.375 935.516 631.397Z" fill="white"/>
<path d="M490.237 787.627L701.501 787.631C689.675 796.281 680.443 804.052 667.358 810.855H464.227C455.401 810.855 448.244 803.699 448.244 794.873V467.915C448.244 459.105 455.401 451.946 464.227 451.946H806.218C809.029 459.543 811.515 467.285 813.683 475.161H490.237C488.584 475.161 487.252 476.493 487.252 478.146V784.655C487.252 786.295 488.584 787.627 490.237 787.627Z" fill="#006DC3"/>
<path d="M568.699 385.551H572.511V199.546H568.699V385.551Z" fill="#4D9AE1"/>
<path d="M842.025 428.274H845.837V199.544H842.025V428.274Z" fill="#4D9AE1"/>
<path d="M845.474 409.573L562.003 376.487C549.888 375.072 538.922 383.746 537.508 395.861L516.35 577.127C514.936 589.241 523.61 600.208 535.725 601.622L819.195 634.709C831.31 636.123 842.276 627.449 843.691 615.335L864.848 434.069C866.262 421.954 857.588 410.988 845.474 409.573Z" fill="white"/>
<path d="M862.753 452.01L864.846 434.068C866.258 421.953 857.585 410.987 845.472 409.573L561.999 376.486C549.887 375.072 538.918 383.746 537.506 395.86L535.41 413.802L862.753 452.01Z" fill="#005CAF"/>
<path d="M568.829 401.535C568.449 404.79 565.502 407.121 562.247 406.743C558.991 406.361 556.661 403.414 557.041 400.158C557.42 396.903 560.368 394.572 563.623 394.952C566.879 395.332 569.209 398.279 568.829 401.535Z" fill="white"/>
<path d="M597.263 404.854C596.883 408.112 593.936 410.44 590.68 410.062C587.425 409.68 585.094 406.733 585.474 403.478C585.854 400.222 588.801 397.892 592.057 398.272C595.312 398.651 597.643 401.599 597.263 404.854Z" fill="#CBEDFF"/>
<path d="M626.739 408.295C626.359 411.551 623.412 413.881 620.157 413.501C616.901 413.122 614.571 410.174 614.951 406.919C615.331 403.663 618.278 401.331 621.533 401.713C624.789 402.093 627.119 405.04 626.739 408.295Z" fill="#E7505B"/>
<path d="M608.095 530.847L613.18 489.038L590.452 528.7L608.095 530.847ZM574.394 526.747L615.336 455.424L634.409 457.743L625.264 532.937L633.531 533.942L631.598 549.837L623.329 548.832L620.875 569.02L603.706 566.933L606.162 546.743L572.461 542.643L574.394 526.747Z" fill="#E7505B"/>
<path d="M671.522 549.209C670.555 557.156 673.687 560.604 679.249 561.279C684.812 561.956 688.678 559.362 689.643 551.412L696.954 491.325C697.919 483.375 694.791 479.93 689.227 479.253C683.666 478.576 679.798 481.172 678.831 489.12L671.522 549.209ZM661.211 488.103C663.376 470.302 673.991 461.268 691.16 463.355C708.331 465.444 716.471 476.759 714.304 494.563L707.266 552.426C705.1 570.232 694.485 579.263 677.316 577.176C660.147 575.087 652.007 563.772 654.17 545.969L661.211 488.103Z" fill="#E7505B"/>
<path d="M764.524 549.875L769.61 508.065L746.88 547.73L764.524 549.875ZM730.823 545.775L771.764 474.452L790.839 476.771L781.693 551.964L789.961 552.97L788.028 568.865L779.758 567.86L777.305 588.047L760.136 585.96L762.592 565.77L728.891 561.67L730.823 545.775Z" fill="#E7505B"/>
<path d="M512.703 673.378C512.703 673.378 508.873 690.355 509.51 707.711C510.082 723.251 508.234 825.4 508.234 825.4H520.711C520.711 825.4 538.472 745.396 539.136 739.08C539.802 732.761 548.735 669.582 548.735 669.582L512.703 673.378Z" fill="#003C8D"/>
<path d="M521 668.719C521 668.719 523.871 690.545 528.756 706.051C533.635 721.56 557.633 825.4 557.633 825.4H570.109C570.109 825.4 567.81 745.396 566.948 739.08C566.087 732.761 559.771 669.582 559.771 669.582L521 668.719Z" fill="#004EAA"/>
<path d="M558.652 825.379V834.084H582.404C583.751 834.084 584.281 832.337 583.157 831.589C579.682 829.276 574.119 826.088 568.946 825.379H558.652Z" fill="#003C8D"/>
<path d="M508.871 825.379V834.084H532.622C533.97 834.084 534.499 832.337 533.375 831.589C529.901 829.276 524.337 826.088 519.165 825.379H508.871Z" fill="#003C8D"/>
<path d="M554.231 555.488C554.238 555.488 554.247 555.49 554.253 555.49C554.235 555.466 554.209 555.445 554.191 555.423C554.099 555.3 553.987 555.186 553.878 555.072C553.746 554.934 553.605 554.802 553.445 554.679C553.322 554.585 553.19 554.494 553.049 554.409C552.841 554.281 552.604 554.172 552.359 554.069C552.22 554.013 552.093 553.951 551.943 553.901C551.516 553.763 551.052 553.647 550.515 553.58C543.314 552.648 540.351 554.795 540.351 554.795C540.351 554.795 532.062 553.881 527.524 557.814C524.413 560.509 513 581.413 531.456 588.977C532.017 589.207 532.555 589.41 533.076 589.591C533.244 589.649 533.402 589.694 533.565 589.748C533.907 589.859 534.249 589.971 534.573 590.063C534.765 590.118 534.946 590.156 535.134 590.206C535.411 590.275 535.692 590.349 535.956 590.402C536.148 590.442 536.327 590.469 536.51 590.501C536.756 590.543 537 590.588 537.232 590.617C537.413 590.639 537.583 590.652 537.757 590.668C537.976 590.686 538.193 590.706 538.4 590.715C538.568 590.722 538.731 590.719 538.892 590.717C539.086 590.715 539.281 590.713 539.464 590.702C539.623 590.69 539.772 590.675 539.924 590.657C540.099 590.637 540.268 590.614 540.432 590.585C540.577 590.561 540.715 590.532 540.856 590.498C541.01 590.463 541.16 590.422 541.31 590.378C541.439 590.337 541.569 590.295 541.694 590.248C541.83 590.197 541.964 590.141 542.094 590.083C542.215 590.029 542.333 589.973 542.447 589.913C542.565 589.848 542.684 589.781 542.798 589.71C542.905 589.643 543.012 589.575 543.113 589.504C543.22 589.428 543.321 589.348 543.421 589.267C543.517 589.189 543.613 589.111 543.705 589.026C543.796 588.941 543.881 588.852 543.966 588.762C544.051 588.673 544.138 588.586 544.221 588.492C544.299 588.398 544.371 588.3 544.442 588.204C544.518 588.103 544.596 588.005 544.668 587.902C544.733 587.806 544.789 587.705 544.849 587.607C544.916 587.495 544.987 587.384 545.052 587.267C545.099 587.18 545.139 587.089 545.182 586.997C547.15 582.986 545.979 577.177 545.979 577.177L551.726 567.194C551.726 567.194 556.915 559.289 554.231 555.488Z" fill="#003C8D"/>
<path d="M540.229 573.244C540.229 573.244 537.81 570.824 535.993 573.244C534.179 575.663 535.39 581.111 538.415 581.412C538.415 581.412 537.506 589.277 531.455 588.976V595.328H545.677V590.488C545.677 590.488 554.449 586.858 554.147 579.596C553.846 572.336 551.728 567.193 551.728 567.193C551.728 567.193 546.886 572.638 540.229 573.244Z" fill="#FDBD9C"/>
<path d="M542.403 592.523C543.813 593.108 543.565 593.997 543.628 595.329H545.674V590.487C545.674 590.487 542.229 591.584 537.182 588.709C537.182 588.709 540.12 591.571 542.403 592.523Z" fill="#F1A07F"/>
<path d="M545.314 561.664C545.314 561.664 537.943 558.728 537.081 560.931C536.517 562.37 537.952 563.614 539.92 564.868L538.187 565.154C537.8 565.216 537.659 565.71 537.965 565.954C538.448 566.345 539.782 566.608 542.57 566.704L545.314 561.664Z" fill="#FDBD9C"/>
<path d="M511.935 664.461L509.435 658.998L501.469 641.592L514.685 626.787L512.31 659.273L511.935 664.461ZM597.947 580.125C583.893 569.71 545.506 561.383 545.506 561.383L542.342 567.145C542.342 567.145 577.19 580.65 574.891 582.663C573.539 583.852 556.508 591.654 550.746 594.279C549.506 594.84 548.156 595.117 546.782 595.093L529.139 594.992C529.139 594.992 516.41 593.477 506.396 604.982C497.445 615.285 482.227 639.141 482.227 639.141L507.859 676.84L510.697 681.002L510.722 680.953L510.697 681.304C510.697 681.304 511.609 681.404 513.222 681.552C521.462 682.316 547.87 684.403 561.848 681.44L562.237 681.353L561.574 619.51C583.893 601.843 594.546 588.202 598.36 583.914C599.359 582.775 599.171 581.039 597.947 580.125Z" fill="#54C5F1"/>
<path d="M509.433 658.997L511.933 664.46L510.72 680.952L510.695 681.004L507.857 676.839L509.433 658.997Z" fill="#00B3E9"/>
<path d="M555.61 617.288C553.237 619.011 553.838 634.308 553.25 643.868C552.269 659.882 551.313 673.74 552.019 682.673C555.637 682.436 559.004 682.043 561.848 681.439L562.237 681.352L561.573 619.512C583.892 601.842 594.546 588.201 598.36 583.914C599.359 582.776 599.171 581.038 597.947 580.124C597.947 580.124 580.304 599.358 555.61 617.288Z" fill="#00B3E9"/>
<path d="M566.95 739.078C566.329 734.52 562.868 700.359 560.986 681.686L552.018 682.674C552.018 682.674 565.1 790.21 565.96 825.399H570.109C570.109 825.399 567.812 745.397 566.95 739.078Z" fill="#003C8D"/>
<path d="M424.36 795.126C424.36 795.126 420.512 791.538 423.095 777.91C425.676 764.285 432.225 751.203 429.012 736.423C425.801 721.64 400.611 684.371 400.528 681.893C400.443 679.413 392.757 725.251 405.783 743.307C418.808 761.363 420.376 767.626 419.795 777.12C419.216 786.616 419.931 794.262 421.359 796.471L424.36 795.126Z" fill="#3F88CB"/>
<path d="M421.973 767.725C420.458 773.802 419.544 789.043 421.964 792.689C422.192 793.029 422.516 792.835 422.921 792.207C422.183 789.686 421.698 785.273 423.093 777.911C425.673 764.286 432.222 751.201 429.009 736.421C425.798 721.641 400.608 684.371 400.525 681.891C400.525 681.891 404.322 712.942 417.102 734.316C426.254 749.617 423.488 761.645 421.973 767.725Z" fill="#4D9AE1"/>
<path d="M428.952 794.181C428.952 794.181 421.551 775.705 434.093 759.712C446.632 743.716 466.69 723.177 467.088 715.042C467.088 715.042 472.243 753.672 455.918 764.607C439.598 775.542 428.152 777.285 430.98 794.112L428.952 794.181Z" fill="#3F88CB"/>
<path d="M446.569 756.841C428.368 770.088 426.88 785.349 429.706 792.425C429.925 792.977 430.341 793.312 430.888 793.491C428.45 777.252 439.803 775.406 455.92 764.607C472.242 753.672 467.089 715.042 467.089 715.042C467.089 715.042 464.77 743.593 446.569 756.841Z" fill="#4D9AE1"/>
<path d="M416.782 794.596C416.782 794.596 419.155 784.814 417.893 774.254C416.633 763.693 405.599 757.751 395.292 746.597C389.988 740.857 388.419 710.508 391.706 707.688C391.706 707.688 373.509 729.743 376.316 745.891C379.124 762.039 408.812 772.532 411.558 780.334C414.307 788.137 414.079 794.688 414.079 794.688L416.782 794.596Z" fill="#3F88CB"/>
<path d="M385.555 716.368C379.54 732.656 385.705 752.383 405.689 764.637C420.398 773.657 415.713 792.417 415.713 792.417L418.115 785.014C418.329 781.815 418.354 778.09 417.893 774.254C416.631 763.692 405.6 757.75 395.291 746.596C390.174 741.062 388.536 712.641 391.376 708.098C390.54 709.148 388.187 712.201 385.555 716.368Z" fill="#4D9AE1"/>
<mask id="mask2_395_113" style="mask-type:alpha" maskUnits="userSpaceOnUse" x="391" y="707" width="1" height="2">
<g opacity="0.559998">
<path d="M391.373 707.688H391.703V708.099H391.373V707.688Z" fill="black"/>
</g>
</mask>
<g mask="url(#mask2_395_113)">
<g opacity="0.559998">
<path d="M391.375 708.099C391.58 707.84 391.703 707.689 391.703 707.689C391.589 707.789 391.48 707.932 391.375 708.099Z" fill="#3F88CB"/>
</g>
</g>
<path d="M432.76 793.374C432.76 793.374 437.023 777.548 447.574 775.416C458.124 773.287 470.237 757.698 470.892 754.641C470.892 754.641 469.113 784.039 432.76 793.374Z" fill="#3F88CB"/>
<path d="M446.969 780.649C440.503 783.882 437.817 788.23 436.863 792.174C469.23 781.766 470.891 754.641 470.891 754.641C470.759 755.246 470.171 756.35 469.246 757.733C466.071 763.294 458.387 774.94 446.969 780.649Z" fill="#4D9AE1"/>
<path d="M455.59 787.546H400.414L406.965 828.757C407.464 831.882 410.158 834.182 413.324 834.182H442.679C445.846 834.182 448.54 831.882 449.036 828.757L455.59 787.546Z" fill="#99DEFE"/>
<mask id="mask3_395_113" style="mask-type:alpha" maskUnits="userSpaceOnUse" x="400" y="787" width="56" height="48">
<g opacity="0.559998">
<path d="M400.414 787.546H455.59V834.182H400.414V787.546Z" fill="black"/>
</g>
</mask>
<g mask="url(#mask3_395_113)">
<g opacity="0.559998">
<path d="M442.222 787.546H400.412L401.496 794.365H441.138L435.668 828.754C435.172 831.882 432.478 834.182 429.312 834.182H442.678C445.844 834.182 448.538 831.882 449.037 828.754L455.588 787.546H442.222Z" fill="#3F88CB"/>
</g>
</g>
<path d="M851.063 764.758H601.695V714.056H851.063V764.758Z" fill="#E7505B"/>
<mask id="mask4_395_113" style="mask-type:alpha" maskUnits="userSpaceOnUse" x="601" y="714" width="251" height="13">
<g opacity="0.289993">
<path d="M601.691 714.053H851.061V726.36H601.691V714.053Z" fill="black"/>
</g>
</mask>
<g mask="url(#mask4_395_113)">
<g opacity="0.289993">
<path d="M851.061 726.36H601.693V714.053H851.061V726.36Z" fill="#AF3D45"/>
</g>
</g>
<path d="M623.377 714.054H646.138L640.036 726.365H617.264L623.377 714.054Z" fill="#F67E2E"/>
<path d="M674.653 714.054H697.414L691.312 726.365H668.553L674.653 714.054Z" fill="#F67E2E"/>
<path d="M725.93 714.054H748.691L742.589 726.365H719.83L725.93 714.054Z" fill="#F67E2E"/>
<path d="M777.207 714.054H799.957L793.855 726.365H771.109L777.207 714.054Z" fill="#F67E2E"/>
<path d="M851.063 714.054V714.398L845.121 726.365H822.387L828.487 714.054H851.063Z" fill="#F67E2E"/>
<path d="M650.312 764.76H632.734V834.086H650.312V764.76Z" fill="#99DEFE"/>
<path d="M821.388 764.76H803.811V834.086H821.388V764.76Z" fill="#99DEFE"/>
<path d="M650.312 714.004H632.734V706.132H650.312V714.004Z" fill="#99DEFE"/>
<path d="M821.388 714.004H803.811V706.132H821.388V714.004Z" fill="#99DEFE"/>
<mask id="mask5_395_113" style="mask-type:alpha" maskUnits="userSpaceOnUse" x="632" y="764" width="19" height="71">
<g opacity="0.559998">
<path d="M632.73 764.707H650.311V834.086H632.73V764.707Z" fill="black"/>
</g>
</mask>
<g mask="url(#mask5_395_113)">
<g opacity="0.559998">
<path d="M632.73 773.437H646.315V834.087H650.308V773.437V764.759V764.708H632.73V773.437Z" fill="#3F88CB"/>
</g>
</g>
<mask id="mask6_395_113" style="mask-type:alpha" maskUnits="userSpaceOnUse" x="803" y="764" width="19" height="71">
<g opacity="0.559998">
<path d="M803.807 764.707H821.387V834.086H803.807V764.707Z" fill="black"/>
</g>
</mask>
<g mask="url(#mask6_395_113)">
<g opacity="0.559998">
<path d="M803.809 773.437H816.189V834.087H821.386V773.437V764.759V764.707H803.809V773.437Z" fill="#3F88CB"/>
</g>
</g>
<mask id="mask7_395_113" style="mask-type:alpha" maskUnits="userSpaceOnUse" x="632" y="706" width="19" height="9">
<g opacity="0.559998">
<path d="M632.73 706.132H650.311V714.01H632.73V706.132Z" fill="black"/>
</g>
</mask>
<g mask="url(#mask7_395_113)">
<g opacity="0.559998">
<path d="M646.315 713.018H632.73V714.01H650.308V714.004V713.018V706.132H646.315V713.018Z" fill="#3F88CB"/>
</g>
</g>
<mask id="mask8_395_113" style="mask-type:alpha" maskUnits="userSpaceOnUse" x="803" y="706" width="19" height="9">
<g opacity="0.559998">
<path d="M803.807 706.132H821.387V714.011H803.807V706.132Z" fill="black"/>
</g>
</mask>
<g mask="url(#mask8_395_113)">
<g opacity="0.559998">
<path d="M816.189 706.132V713.018H803.809V714.01H821.386V714.004V713.018V706.132H816.189Z" fill="#3F88CB"/>
</g>
</g>
<path d="M646.135 714.054L620.985 764.756H601.691V757.763L623.374 714.054H646.135Z" fill="white"/>
<path d="M674.652 714.054L649.502 764.756H672.264L697.414 714.054H674.652Z" fill="white"/>
<path d="M748.693 714.054L723.543 764.756H700.783L725.931 714.054H748.693Z" fill="white"/>
<path d="M799.957 714.054L774.82 764.756H752.059L777.206 714.054H799.957Z" fill="white"/>
<path d="M828.488 714.054L803.338 764.756H826.086L851.064 714.398L828.488 714.054Z" fill="white"/>
<path d="M646.137 714.054L640.037 726.365H617.262L623.375 714.054H646.137Z" fill="#E1F5FF"/>
<path d="M697.414 714.054L691.314 726.365H668.553L674.653 714.054H697.414Z" fill="#E1F5FF"/>
<path d="M748.691 714.054L742.592 726.365H719.83L725.93 714.054H748.691Z" fill="#E1F5FF"/>
<path d="M799.957 714.054L793.858 726.365H771.109L777.207 714.054H799.957Z" fill="#E1F5FF"/>
<path d="M851.063 714.397L845.121 726.365H822.387L828.487 714.053L851.063 714.397Z" fill="#E1F5FF"/>
<path d="M656.739 695.129C656.739 686.473 649.72 679.455 641.064 679.455C632.409 679.455 625.393 686.473 625.393 695.129C625.393 703.785 632.409 710.803 641.064 710.803C649.72 710.803 656.739 703.785 656.739 695.129Z" fill="#E7505B"/>
<path d="M648.167 695.129C648.167 691.208 644.987 688.026 641.064 688.026C637.14 688.026 633.963 691.208 633.963 695.129C633.963 699.053 637.14 702.232 641.064 702.232C644.987 702.232 648.167 699.053 648.167 695.129Z" fill="white"/>
<path d="M828.169 695.129C828.169 686.473 821.15 679.455 812.492 679.455C803.836 679.455 796.82 686.473 796.82 695.129C796.82 703.785 803.836 710.803 812.492 710.803C821.15 710.803 828.169 703.785 828.169 695.129Z" fill="#E7505B"/>
<path d="M819.597 695.129C819.597 691.208 816.415 688.026 812.491 688.026C808.57 688.026 805.391 691.208 805.391 695.129C805.391 699.053 808.57 702.232 812.491 702.232C816.415 702.232 819.597 699.053 819.597 695.129Z" fill="white"/>
<path d="M945.538 828.712H866.117L878.265 799.265V799.247L883.15 787.365L884.497 784.109L886.691 778.807L887.138 777.728L892.025 765.843L892.923 763.682L901.581 742.661C903.143 738.872 908.512 738.872 910.074 742.661L918.732 763.682L919.628 765.843L924.515 777.728L924.964 778.807L927.156 784.109L928.503 787.365L933.39 799.247V799.265L945.538 828.712Z" fill="#E7505B"/>
<mask id="mask9_395_113" style="mask-type:alpha" maskUnits="userSpaceOnUse" x="866" y="816" width="80" height="13">
<g opacity="0.289993">
<path d="M866.123 816.086H945.546V828.711H866.123V816.086Z" fill="black"/>
</g>
</mask>
<g mask="url(#mask9_395_113)">
<g opacity="0.289993">
<path d="M871.325 816.086L866.121 828.711H945.546L940.343 816.086H871.325Z" fill="#AF3D45"/>
</g>
</g>
<path d="M950.733 821.164H859.771V834.023H950.733V821.164Z" fill="#99DEFE"/>
<mask id="mask10_395_113" style="mask-type:alpha" maskUnits="userSpaceOnUse" x="931" y="821" width="20" height="14">
<g opacity="0.559998">
<path d="M931.08 821.163H950.731V834.022H931.08V821.163Z" fill="black"/>
</g>
</mask>
<g mask="url(#mask10_395_113)">
<g opacity="0.559998">
<path d="M931.078 834.023H950.732V821.164H931.078V834.023Z" fill="#3F88CB"/>
</g>
</g>
<mask id="mask11_395_113" style="mask-type:alpha" maskUnits="userSpaceOnUse" x="900" y="739" width="43" height="83">
<g opacity="0.289993">
<path d="M900.219 739.827H942.413V821.158H900.219V739.827Z" fill="black"/>
</g>
</mask>
<g mask="url(#mask11_395_113)">
<g opacity="0.289993">
<path d="M942.415 821.157H931.18L922.158 799.272V799.254L917.269 787.373L915.924 784.116L913.73 778.814L913.283 777.732L908.394 765.852L907.498 763.691L900.219 745.993L901.584 742.67C903.146 738.881 908.513 738.881 910.075 742.67L918.733 763.691L919.631 765.852L924.515 777.732L924.964 778.814L927.159 784.116L928.504 787.373L933.39 799.254V799.272L942.415 821.157Z" fill="#AF3D45"/>
</g>
</g>
<path d="M924.513 777.727H887.137L892.023 765.844H919.627L924.513 777.727Z" fill="white"/>
<path d="M933.388 799.248V799.266H878.264V799.248L883.15 787.365H928.501L933.388 799.248Z" fill="white"/>
<path d="M924.516 777.727H913.283L908.395 765.844H919.629L924.516 777.727Z" fill="#E1F5FF"/>
<path d="M933.389 799.248V799.266H922.156V799.248L917.268 787.366H928.502L933.389 799.248Z" fill="#E1F5FF"/>
<path d="M779.864 338.037C798.602 338.037 799.641 309.839 780.926 308.93C780.414 308.905 779.9 308.892 779.382 308.892C776.041 308.892 772.826 309.421 769.807 310.391C767.303 295.128 754.057 283.48 738.086 283.48C721.762 283.48 708.291 295.647 706.217 311.406C702.345 309.549 698.006 308.508 693.423 308.508C690.865 308.508 688.382 308.832 686.012 309.442C669.629 313.662 673.068 338.037 689.984 338.037H779.864Z" fill="#99DEFE"/>
</svg>
