<svg width="35" height="35" viewBox="0 0 35 35" fill="none" xmlns="http://www.w3.org/2000/svg">
<circle opacity="0.12" cx="17.5" cy="17.5" r="17.5" fill="#2770EF"/>
<g clip-path="url(#clip0)">
<path opacity="0.5" d="M17.5 17.0563C20.3995 17.0563 22.75 14.8052 22.75 12.0282C22.75 9.25119 20.3995 7 17.5 7C14.6005 7 12.25 9.25119 12.25 12.0282C12.25 14.8052 14.6005 17.0563 17.5 17.0563Z" fill="#2770EF"/>
<path d="M17.5 30.8001C13.125 30.8001 9.275 28.6213 7 25.4367C7 22.0846 14 20.241 17.5 20.241C21 20.241 28 22.0846 28 25.4367C25.725 28.6213 21.875 30.8001 17.5 30.8001Z" fill="#2770EF"/>
</g>
<defs>
<clipPath id="clip0">
<rect width="21" height="23.8" fill="white" transform="translate(7 7)"/>
</clipPath>
</defs>
</svg>
