<svg width="16" height="16" viewBox="0 0 16 16" fill="none" xmlns="http://www.w3.org/2000/svg">
<path d="M8 8.5C10.2091 8.5 12 6.70914 12 4.5C12 2.29086 10.2091 0.5 8 0.5C5.79086 0.5 4 2.29086 4 4.5C4 6.70914 5.79086 8.5 8 8.5Z" fill="#518ED1"/>
<path d="M2.5 15.5002H8.68C7.80204 14.7965 7.22065 13.7885 7.05116 12.6762C6.88167 11.5638 7.13646 10.4284 7.765 9.49518C6.47238 9.43096 5.25442 8.87034 4.365 7.93018C3.36795 8.35107 2.51703 9.05643 1.91856 9.95814C1.32009 10.8599 1.00059 11.9179 1 13.0002V14.0002C1.00119 14.3976 1.1596 14.7785 1.44065 15.0595C1.7217 15.3406 2.10254 15.499 2.5 15.5002Z" fill="#518ED1"/>
<path d="M8 12C8 12.6922 8.20527 13.3689 8.58986 13.9445C8.97444 14.5201 9.52107 14.9687 10.1606 15.2336C10.8001 15.4985 11.5039 15.5678 12.1828 15.4327C12.8618 15.2977 13.4854 14.9644 13.9749 14.4749C14.4644 13.9854 14.7977 13.3618 14.9327 12.6828C15.0678 12.0039 14.9985 11.3001 14.7336 10.6606C14.4687 10.0211 14.0201 9.47444 13.4445 9.08986C12.8689 8.70527 12.1922 8.5 11.5 8.5C10.5721 8.50106 9.68244 8.87015 9.0263 9.5263C8.37015 10.1824 8.00106 11.0721 8 12ZM12 11V11.5H12.5C12.6326 11.5 12.7598 11.5527 12.8536 11.6464C12.9473 11.7402 13 11.8674 13 12C13 12.1326 12.9473 12.2598 12.8536 12.3536C12.7598 12.4473 12.6326 12.5 12.5 12.5H12V13C12 13.1326 11.9473 13.2598 11.8536 13.3536C11.7598 13.4473 11.6326 13.5 11.5 13.5C11.3674 13.5 11.2402 13.4473 11.1464 13.3536C11.0527 13.2598 11 13.1326 11 13V12.5H10.5C10.3674 12.5 10.2402 12.4473 10.1464 12.3536C10.0527 12.2598 10 12.1326 10 12C10 11.8674 10.0527 11.7402 10.1464 11.6464C10.2402 11.5527 10.3674 11.5 10.5 11.5H11V11C11 10.8674 11.0527 10.7402 11.1464 10.6464C11.2402 10.5527 11.3674 10.5 11.5 10.5C11.6326 10.5 11.7598 10.5527 11.8536 10.6464C11.9473 10.7402 12 10.8674 12 11Z" fill="#518ED1"/>
</svg>
