<svg width="226" height="260" viewBox="0 0 226 260" fill="none" xmlns="http://www.w3.org/2000/svg">
<path d="M47.6996 183.9C59.1996 182.2 71.3996 175.9 74.5996 174.2L69.3996 164.5C60.2996 169.4 44.5996 175.2 38.4996 172.8C29.1996 169.1 24.6996 157.2 24.2996 155.2L13.5996 157.6C14.4996 161.6 20.4996 177.5 34.3996 183.1C38.1996 184.5 42.8996 184.6 47.6996 183.9Z" fill="#272B54"/>
<path d="M17.9002 158.1L20.2002 157.6C24.5002 156.6 27.2002 152.3 26.3002 148L25.7002 145.1C24.7002 140.8 20.4002 138.1 16.1002 139L13.8002 139.5C9.50022 140.5 6.80022 144.8 7.70022 149.1L8.30022 152C9.30022 156.3 13.6002 159.1 17.9002 158.1Z" fill="#272B54"/>
<path d="M6.29874 158.7L13.0987 158.4C15.7987 158.3 17.8987 156 17.7987 153.3V152.9C17.6987 150.2 15.3987 148.1 12.6987 148.2L5.89874 148.5C3.19874 148.6 1.09874 150.9 1.19874 153.6V154C1.29874 156.7 3.59874 158.8 6.29874 158.7Z" fill="white"/>
<path d="M12.5991 148.2L12.6991 150.2C14.2991 150.1 15.5991 151.4 15.6991 153V153.4C15.7991 155 14.4991 156.3 12.8991 156.4L6.09913 156.7C4.49913 156.8 3.19913 155.5 3.09913 153.9V153.5C3.09913 152.7 3.29913 152 3.89913 151.4C4.39913 150.8 5.09913 150.5 5.89913 150.5L12.6991 150.2L12.5991 148.2ZM12.5991 148.2L5.79913 148.5C3.09913 148.6 0.999131 150.9 1.09913 153.6V154C1.19913 156.7 3.49913 158.8 6.19913 158.7L12.9991 158.4C15.6991 158.3 17.7991 156 17.6991 153.3V152.9C17.5991 150.2 15.2991 148.1 12.5991 148.2Z" fill="#272B54"/>
<path d="M4.9 148.9H12.1C14.8 148.9 17 146.7 17 144V143.6C17 140.9 14.8 138.7 12.1 138.7H4.9C2.2 138.7 0 140.9 0 143.6V144C0 146.7 2.2 148.9 4.9 148.9Z" fill="white"/>
<path d="M4.8 140.8H4.9H12.1C12.9 140.8 13.6 141.1 14.1 141.7C14.6 142.2 14.9 143 14.9 143.7V144.1C14.9 145.6 13.7 146.9 12.1 147H12H4.8C3.2 147 1.9 145.7 1.9 144.1V143.7C2 142.1 3.2 140.8 4.8 140.8ZM4.7 138.8C2.1 138.9 0 141 0 143.6V144C0 146.7 2.2 148.9 4.9 148.9H12.1C12.2 148.9 12.2 148.9 12.3 148.9C14.9 148.8 17 146.6 17 144V143.6C17 140.9 14.8 138.7 12.1 138.7H4.9C4.8 138.8 4.7 138.8 4.7 138.8Z" fill="#272B54"/>
<path d="M17.1006 130.6L16.2006 137.3C15.9006 140 17.7006 142.4 20.4006 142.8H20.8006C23.5006 143.1 25.9006 141.3 26.3006 138.6L27.2006 131.9C27.5006 129.2 25.7006 126.8 23.0006 126.4H22.6006C19.9006 126.1 17.4006 128 17.1006 130.6Z" fill="white"/>
<path d="M21.4006 128.4C21.7006 128.3 22.0006 128.3 22.3006 128.4H22.7006C23.5006 128.5 24.1006 128.9 24.6006 129.5C25.1006 130.1 25.3006 130.9 25.2006 131.6L24.3006 138.3C24.1006 139.5 23.2006 140.5 21.9006 140.8C21.6006 140.9 21.3006 140.9 21.0006 140.8H20.6006C19.8006 140.7 19.2006 140.3 18.7006 139.7C18.2006 139.1 18.0006 138.3 18.1006 137.6L19.0006 130.9C19.2006 129.7 20.2006 128.6 21.4006 128.4ZM21.1006 126.5C19.1006 126.9 17.4006 128.5 17.1006 130.7L16.2006 137.4C15.9006 140.1 17.7006 142.5 20.4006 142.9H20.8006C21.3006 143 21.8006 143 22.3006 142.9C24.3006 142.5 26.0006 140.9 26.3006 138.7L27.2006 132C27.5006 129.3 25.7006 126.9 23.0006 126.5H22.6006C22.0006 126.4 21.5006 126.4 21.1006 126.5Z" fill="#272B54"/>
<path d="M212.8 25.8999H140.5C133.4 25.8999 127.6 31.6999 127.6 38.7999V80.6999C127.6 87.7999 133.4 93.5999 140.5 93.5999H151.7L151.8 110.3L174 93.5999H212.8C219.9 93.5999 225.7 87.7999 225.7 80.6999V38.7999C225.7 31.6999 219.9 25.8999 212.8 25.8999Z" fill="#26DB95"/>
<path d="M171.101 72C170.601 72 170.201 71.8 169.801 71.5L161.201 63.3C160.501 62.6 160.401 61.4 161.101 60.7C161.801 60 163.001 59.9 163.701 60.6L170.901 67.5L188.201 48.7C188.901 47.9 190.101 47.9 190.801 48.6C191.601 49.3 191.601 50.5 190.901 51.2L172.301 71.4C172.101 71.7 171.601 71.9 171.101 72Z" fill="white"/>
<path d="M130.201 245.8C134.288 245.8 137.601 242.576 137.601 238.6C137.601 234.623 134.288 231.4 130.201 231.4C126.114 231.4 122.801 234.623 122.801 238.6C122.801 242.576 126.114 245.8 130.201 245.8Z" fill="#272B54"/>
<path d="M130.201 233.5C133.101 233.5 135.501 235.8 135.501 238.7C135.501 241.5 133.101 243.9 130.201 243.9C127.301 243.9 124.901 241.6 124.901 238.7C125.001 235.8 127.301 233.5 130.201 233.5ZM130.201 231.4C126.101 231.4 122.801 234.6 122.801 238.6C122.801 242.6 126.101 245.8 130.201 245.8C134.301 245.8 137.601 242.6 137.601 238.6C137.601 234.7 134.301 231.4 130.201 231.4Z" fill="#272B54"/>
<path d="M131.302 242.7C133.621 242.7 135.502 240.864 135.502 238.6C135.502 236.336 133.621 234.5 131.302 234.5C128.982 234.5 127.102 236.336 127.102 238.6C127.102 240.864 128.982 242.7 131.302 242.7Z" fill="white"/>
<path d="M128.9 242.5L127.4 241L133.7 234.8L135.2 236.3L128.9 242.5Z" fill="#272B54"/>
<path d="M147.301 259.2H92.8008C81.5008 259.2 72.3008 250 72.3008 238.7C72.3008 227.4 81.5008 218.2 92.8008 218.2H147.401C158.701 218.2 167.901 227.4 167.901 238.7C167.901 250 158.601 259.2 147.301 259.2Z" fill="#272B54"/>
<path d="M132.699 256.2H91.6992C82.0992 256.2 74.1992 248.3 74.1992 238.7C74.1992 229.1 82.0992 221.2 91.6992 221.2H132.699C142.299 221.2 150.199 229.1 150.199 238.7C150.199 248.3 142.399 256.2 132.699 256.2Z" fill="white"/>
<path d="M90.2008 245.8C94.2877 245.8 97.6008 242.576 97.6008 238.6C97.6008 234.623 94.2877 231.4 90.2008 231.4C86.1139 231.4 82.8008 234.623 82.8008 238.6C82.8008 242.576 86.1139 245.8 90.2008 245.8Z" fill="#272B54"/>
<path d="M90.2008 233.5C93.1008 233.5 95.5008 235.8 95.5008 238.7C95.5008 241.5 93.1008 243.9 90.2008 243.9C87.3008 243.9 84.9008 241.6 84.9008 238.7C85.0008 235.8 87.3008 233.5 90.2008 233.5ZM90.2008 231.4C86.1008 231.4 82.8008 234.6 82.8008 238.6C82.8008 242.6 86.1008 245.8 90.2008 245.8C94.3008 245.8 97.6008 242.6 97.6008 238.6C97.6008 234.7 94.3008 231.4 90.2008 231.4Z" fill="#272B54"/>
<path d="M91.3016 242.7C93.6212 242.7 95.5016 240.864 95.5016 238.6C95.5016 236.336 93.6212 234.5 91.3016 234.5C88.982 234.5 87.1016 236.336 87.1016 238.6C87.1016 240.864 88.982 242.7 91.3016 242.7Z" fill="white"/>
<path d="M88.9004 242.5L87.4004 241L93.7004 234.8L95.2004 236.3L88.9004 242.5Z" fill="#272B54"/>
<path d="M88.2008 245.8C92.2877 245.8 95.6008 242.576 95.6008 238.6C95.6008 234.623 92.2877 231.4 88.2008 231.4C84.1139 231.4 80.8008 234.623 80.8008 238.6C80.8008 242.576 84.1139 245.8 88.2008 245.8Z" fill="#272B54"/>
<path d="M88.2008 233.5C91.1008 233.5 93.5008 235.8 93.5008 238.7C93.5008 241.5 91.1008 243.9 88.2008 243.9C85.3008 243.9 82.9008 241.6 82.9008 238.7C83.0008 235.8 85.3008 233.5 88.2008 233.5ZM88.2008 231.4C84.1008 231.4 80.8008 234.6 80.8008 238.6C80.8008 242.6 84.1008 245.8 88.2008 245.8C92.3008 245.8 95.6008 242.6 95.6008 238.6C95.6008 234.7 92.3008 231.4 88.2008 231.4Z" fill="#272B54"/>
<path d="M89.3016 242.7C91.6212 242.7 93.5016 240.864 93.5016 238.6C93.5016 236.336 91.6212 234.5 89.3016 234.5C86.982 234.5 85.1016 236.336 85.1016 238.6C85.1016 240.864 86.982 242.7 89.3016 242.7Z" fill="white"/>
<path d="M86.9004 242.5L85.4004 241L91.7004 234.8L93.2004 236.3L86.9004 242.5Z" fill="#272B54"/>
<path d="M148.199 180.3C136.599 180.3 123.499 175.9 120.199 174.7L123.899 164.3C133.699 167.8 149.999 171.2 155.699 167.9C164.299 162.8 166.999 150.4 167.099 148.3L178.099 149C177.799 153 174.199 169.7 161.299 177.3C157.799 179.5 153.099 180.3 148.199 180.3Z" fill="#272B54"/>
<path d="M125.201 180.5C120.101 178.6 117.701 172.3 119.801 166.5C121.901 160.7 127.901 157.5 133.001 159.4L142.901 163.1L134.901 184.7L125.201 180.5Z" fill="white"/>
<path d="M130.002 160.8C130.802 160.8 131.602 160.9 132.402 161.2L140.402 164.2L133.802 182L126.002 178.7C124.102 178 122.602 176.4 121.702 174.3C120.902 172.1 120.902 169.6 121.802 167.2C123.102 163.3 126.402 160.8 130.002 160.8ZM130.002 158.8C125.802 158.8 121.602 161.8 119.902 166.5C117.702 172.3 120.102 178.6 125.302 180.5L135.002 184.6L143.002 163L133.102 159.3C132.002 158.9 131.002 158.8 130.002 158.8Z" fill="#272B54"/>
<path d="M142.503 175.142C144.714 169.188 144.911 163.768 142.944 163.038C140.976 162.307 137.589 166.542 135.378 172.496C133.167 178.451 132.97 183.87 134.938 184.6C136.905 185.331 140.292 181.096 142.503 175.142Z" fill="#272B54"/>
<path d="M136.923 163.081C137.239 162.139 136.223 160.947 134.652 160.42C133.082 159.892 131.552 160.228 131.235 161.17C130.919 162.113 131.935 163.304 133.506 163.832C135.076 164.36 136.606 164.024 136.923 163.081Z" fill="#272B54"/>
<path d="M106.301 259.2H50.8008C39.5008 259.2 30.3008 250 30.3008 238.7C30.3008 227.4 39.5008 218.2 50.8008 218.2H106.401C117.701 218.2 126.901 227.4 126.901 238.7C126.901 250 117.601 259.2 106.301 259.2Z" fill="#272B54"/>
<path d="M90.6992 256.2H49.6992C40.0992 256.2 32.1992 248.3 32.1992 238.7C32.1992 229.1 40.0992 221.2 49.6992 221.2H90.6992C100.299 221.2 108.199 229.1 108.199 238.7C108.199 248.3 100.399 256.2 90.6992 256.2Z" fill="white"/>
<path d="M136.199 210.2L128.399 219.2H68.1992L60.1992 210.2L67.6992 162.2L75.5992 156.2H121.199L127.799 162.2L136.199 210.2Z" fill="white"/>
<path d="M120.399 158.2L125.899 163.2L134.099 209.6L127.499 217.2H69.0988L62.2988 209.6L69.4988 163.3L76.1988 158.2H120.399ZM121.199 156.2H75.5988L67.6988 162.2L60.2988 210.2L68.2988 219.2H128.399L136.299 210.2L127.899 162.2L121.199 156.2Z" fill="#272B54"/>
<path fill-rule="evenodd" clip-rule="evenodd" d="M127.701 163.2H121.701L118.901 181.6C118.701 182.6 117.801 183.2 116.801 183.2H102.601C101.701 183.2 100.801 182.7 100.501 181.8L92.7008 163.2H68.8008L76.5008 155.7H121.501L127.701 163.2Z" fill="#272B54"/>
<path d="M123.201 190.2H97.0008C96.6008 190.2 96.3008 190 96.1008 189.6L87.9008 172.2H79.3008C78.7008 172.2 78.3008 171.8 78.3008 171.2C78.3008 170.6 78.7008 170.2 79.3008 170.2H88.6008C89.0008 170.2 89.3008 170.4 89.5008 170.8L97.7008 188.2H122.501L124.401 173.1C124.501 172.6 124.901 172.2 125.401 172.2H128.401C129.001 172.2 129.401 172.6 129.401 173.2C129.401 173.8 129.001 174.2 128.401 174.2H126.301L124.401 189.3C124.201 189.8 123.701 190.2 123.201 190.2Z" fill="#272B54"/>
<path d="M119.101 211.2H62.3008C61.7008 211.2 61.3008 210.8 61.3008 210.2C61.3008 209.6 61.7008 209.2 62.3008 209.2H119.101C119.701 209.2 120.101 209.6 120.101 210.2C120.101 210.8 119.601 211.2 119.101 211.2Z" fill="#272B54"/>
<path d="M135.101 211.2H125.301C124.701 211.2 124.301 210.8 124.301 210.2C124.301 209.6 124.701 209.2 125.301 209.2H135.101C135.701 209.2 136.101 209.6 136.101 210.2C136.101 210.8 135.601 211.2 135.101 211.2Z" fill="#272B54"/>
<path d="M48.2008 245.8C52.2877 245.8 55.6008 242.576 55.6008 238.6C55.6008 234.623 52.2877 231.4 48.2008 231.4C44.1139 231.4 40.8008 234.623 40.8008 238.6C40.8008 242.576 44.1139 245.8 48.2008 245.8Z" fill="#272B54"/>
<path d="M48.2008 233.5C51.1008 233.5 53.5008 235.8 53.5008 238.7C53.5008 241.5 51.1008 243.9 48.2008 243.9C45.3008 243.9 42.9008 241.6 42.9008 238.7C43.0008 235.8 45.3008 233.5 48.2008 233.5ZM48.2008 231.4C44.1008 231.4 40.8008 234.6 40.8008 238.6C40.8008 242.6 44.1008 245.8 48.2008 245.8C52.3008 245.8 55.6008 242.6 55.6008 238.6C55.6008 234.7 52.3008 231.4 48.2008 231.4Z" fill="#272B54"/>
<path d="M49.3016 242.7C51.6212 242.7 53.5016 240.864 53.5016 238.6C53.5016 236.336 51.6212 234.5 49.3016 234.5C46.982 234.5 45.1016 236.336 45.1016 238.6C45.1016 240.864 46.982 242.7 49.3016 242.7Z" fill="white"/>
<path d="M46.9004 242.5L45.4004 241L51.7004 234.8L53.2004 236.3L46.9004 242.5Z" fill="#272B54"/>
<path d="M89.2008 245.8C93.2877 245.8 96.6008 242.576 96.6008 238.6C96.6008 234.623 93.2877 231.4 89.2008 231.4C85.1139 231.4 81.8008 234.623 81.8008 238.6C81.8008 242.576 85.1139 245.8 89.2008 245.8Z" fill="#272B54"/>
<path d="M89.2008 233.5C92.1008 233.5 94.5008 235.8 94.5008 238.7C94.5008 241.5 92.1008 243.9 89.2008 243.9C86.3008 243.9 83.9008 241.6 83.9008 238.7C83.9008 235.8 86.3008 233.5 89.2008 233.5ZM89.2008 231.4C85.1008 231.4 81.8008 234.6 81.8008 238.6C81.8008 242.6 85.1008 245.8 89.2008 245.8C93.3008 245.8 96.6008 242.6 96.6008 238.6C96.5008 234.7 93.2008 231.4 89.2008 231.4Z" fill="#272B54"/>
<path d="M90.2 242.7C92.5196 242.7 94.4 240.864 94.4 238.6C94.4 236.336 92.5196 234.5 90.2 234.5C87.8804 234.5 86 236.336 86 238.6C86 240.864 87.8804 242.7 90.2 242.7Z" fill="white"/>
<path d="M87.8008 242.5L86.3008 241L92.6008 234.8L94.1008 236.3L87.8008 242.5Z" fill="#272B54"/>
<path d="M59.1012 160C64.1012 157.2 70.7012 159.5 73.9012 165.2C77.1012 170.9 75.6012 177.7 70.6012 180.6L61.0012 186L49.2012 165L59.1012 160Z" fill="white"/>
<path d="M67.7012 161.8C69.5012 162.7 71.1012 164.2 72.1012 166.2C74.7012 170.9 73.6012 176.6 69.6012 178.8L61.7012 183.2L52.0012 165.8L60.0012 161.8C62.4012 160.5 65.1012 160.5 67.7012 161.8ZM68.6012 160C65.5012 158.4 62.0012 158.3 59.1012 160L49.2012 165L61.0012 186L70.6012 180.6C75.6012 177.8 77.0012 170.9 73.9012 165.2C72.6012 162.9 70.7012 161.1 68.6012 160Z" fill="#272B54"/>
<path d="M61.0129 185.968C62.9384 184.885 61.8657 179.324 58.6169 173.548C55.3682 167.771 51.1736 163.967 49.2481 165.049C47.3226 166.132 48.3954 171.693 51.6441 177.469C54.8929 183.246 59.0874 187.051 61.0129 185.968Z" fill="#272B54"/>
<path d="M61.8141 167.051C63.2068 166.154 63.8267 164.636 63.1985 163.661C62.5704 162.686 60.9321 162.623 59.5394 163.52C58.1466 164.418 57.5268 165.936 58.1549 166.911C58.7831 167.885 60.4213 167.948 61.8141 167.051Z" fill="#272B54"/>
<path d="M173.4 150.9L171.1 150.5C166.8 149.7 163.9 145.5 164.6 141.2L165.1 138.3C165.9 134 170.1 131.1 174.4 131.8L176.7 132.2C181 133 183.9 137.2 183.2 141.5L182.7 144.4C181.9 148.8 177.7 151.7 173.4 150.9Z" fill="#272B54"/>
<path d="M185.001 151H178.201C175.501 151 173.301 148.8 173.301 146.1V145.7C173.301 143 175.501 140.8 178.201 140.8H185.001C187.701 140.8 189.901 143 189.901 145.7V146.1C189.901 148.8 187.701 151 185.001 151Z" fill="white"/>
<path d="M178.201 140.8V142.8H185.001C185.801 142.8 186.501 143.1 187.001 143.7C187.501 144.2 187.801 145 187.801 145.7V146.1C187.801 147.7 186.501 149 184.901 149H178.101C176.501 149 175.201 147.7 175.201 146.1V145.7C175.201 144.1 176.501 142.8 178.101 142.8V140.8H178.201ZM178.201 140.8C175.501 140.8 173.301 143 173.301 145.7V146.1C173.301 148.8 175.501 151 178.201 151H185.001C187.701 151 189.901 148.8 189.901 146.1V145.7C189.901 143 187.701 140.8 185.001 140.8H178.201Z" fill="#272B54"/>
<path d="M185.999 141.2L178.799 141.5C176.099 141.6 173.799 139.5 173.699 136.8V136.4C173.599 133.7 175.699 131.4 178.399 131.3L185.599 131C188.299 130.9 190.599 133 190.699 135.7V136.1C190.799 138.7 188.699 141 185.999 141.2Z" fill="white"/>
<path d="M185.699 133C187.199 133 188.499 134.2 188.599 135.8V136.2C188.699 137.8 187.399 139.1 185.799 139.2L178.599 139.5H178.499C176.999 139.5 175.699 138.3 175.599 136.7V136.3C175.599 135.5 175.799 134.8 176.399 134.2C176.899 133.6 177.599 133.3 178.399 133.3L185.599 133H185.699ZM185.699 131C185.599 131 185.599 131 185.499 131L178.299 131.3C175.599 131.4 173.499 133.7 173.599 136.4V136.8C173.699 139.4 175.899 141.5 178.499 141.5C178.599 141.5 178.599 141.5 178.699 141.5L185.899 141.2C188.599 141.1 190.699 138.8 190.599 136.1V135.7C190.499 133.1 188.299 131 185.699 131Z" fill="#272B54"/>
<path d="M171.399 122.9L173.399 129.4C174.199 132 172.799 134.7 170.199 135.5L169.799 135.6C167.199 136.4 164.499 135 163.699 132.4L161.699 125.9C160.899 123.3 162.299 120.6 164.899 119.8L165.299 119.7C167.799 118.9 170.599 120.4 171.399 122.9Z" fill="white"/>
<path d="M166.7 121.5C168 121.5 169.1 122.3 169.5 123.5L171.5 130C171.7 130.7 171.7 131.5 171.3 132.2C170.9 132.9 170.3 133.4 169.6 133.6L169.2 133.7C168.9 133.8 168.6 133.8 168.3 133.8C167 133.8 165.9 133 165.5 131.8L163.5 125.3C163.3 124.6 163.3 123.8 163.7 123.1C164.1 122.4 164.7 121.9 165.4 121.7L165.8 121.6C166.2 121.5 166.5 121.5 166.7 121.5ZM166.7 119.5C166.2 119.5 165.7 119.6 165.2 119.7L164.8 119.8C162.2 120.6 160.8 123.4 161.6 125.9L163.6 132.4C164.3 134.5 166.2 135.8 168.3 135.8C168.8 135.8 169.3 135.7 169.8 135.6L170.2 135.5C172.8 134.7 174.2 131.9 173.4 129.4L171.4 122.9C170.8 120.8 168.8 119.5 166.7 119.5Z" fill="#272B54"/>
<path d="M113.1 99.9999H108.2L104.5 92.0999C103.1 89.1999 99.5005 87.8999 96.6005 89.2999L96.2005 89.4999C93.3005 90.8999 92.0005 94.4999 93.4005 97.3999L94.6005 99.8999H85.0005C75.3005 99.8999 66.7005 104.7 61.5005 112C61.5005 111.3 61.3005 110.5 60.9005 109.8L54.2005 95.9999C52.8005 93.0999 49.2005 91.7999 46.3005 93.1999L45.9005 93.3999C43.0005 94.7999 41.7005 98.3999 43.1005 101.3L49.8005 115.2C50.4005 116.5 51.4005 117.4 52.6005 118C50.4005 120.8 49.0005 124.7 49.0005 129C49.0005 137.3 54.0005 144.1 60.3005 144.4C65.5005 152.6 74.6005 158.1 84.9005 158.1H113C129 158.1 142.1 145 142.1 129C142.1 113.1 129.1 99.9999 113.1 99.9999Z" fill="#272B54"/>
<path d="M119.5 108.9H103.2C92.1 108.9 83 118 83 129.1C83 140.2 92.1 149.3 103.2 149.3H119.5C130.6 149.3 139.7 140.2 139.7 129.1C139.7 118 130.6 108.9 119.5 108.9Z" fill="#FCFCFC"/>
<path d="M58.4 121.2C55.1 121.2 52.5 124.7 52.5 129.1C52.5 133.5 55.1 137 58.4 137C61.7 137 64.3 133.5 64.3 129.1C64.3 124.7 61.7 121.2 58.4 121.2Z" fill="#FCFCFC"/>
<path d="M100.8 136C104.887 136 108.2 132.552 108.2 128.3C108.2 124.047 104.887 120.6 100.8 120.6C96.7135 120.6 93.4004 124.047 93.4004 128.3C93.4004 132.552 96.7135 136 100.8 136Z" fill="#272B54"/>
<path d="M101.9 127.7C103.17 127.7 104.2 126.625 104.2 125.3C104.2 123.974 103.17 122.9 101.9 122.9C100.629 122.9 99.5996 123.974 99.5996 125.3C99.5996 126.625 100.629 127.7 101.9 127.7Z" fill="#FCFCFC"/>
<path d="M124.9 135.1C128.49 135.1 131.4 132.056 131.4 128.3C131.4 124.544 128.49 121.5 124.9 121.5C121.311 121.5 118.4 124.544 118.4 128.3C118.4 132.056 121.311 135.1 124.9 135.1Z" fill="#272B54"/>
<path d="M126.101 127.7C127.427 127.7 128.501 126.581 128.501 125.2C128.501 123.819 127.427 122.7 126.101 122.7C124.776 122.7 123.701 123.819 123.701 125.2C123.701 126.581 124.776 127.7 126.101 127.7Z" fill="#FCFCFC"/>
<path d="M204.399 130.4C206.995 130.4 209.099 128.296 209.099 125.7C209.099 123.104 206.995 121 204.399 121C201.803 121 199.699 123.104 199.699 125.7C199.699 128.296 201.803 130.4 204.399 130.4Z" fill="#26DB95"/>
<path d="M107.1 65.0001C109.696 65.0001 111.8 62.8958 111.8 60.3001C111.8 57.7044 109.696 55.6001 107.1 55.6001C104.505 55.6001 102.4 57.7044 102.4 60.3001C102.4 62.8958 104.505 65.0001 107.1 65.0001Z" fill="#26DB95"/>
<path d="M43.1008 50.6C44.9233 50.6 46.4008 49.1225 46.4008 47.3C46.4008 45.4775 44.9233 44 43.1008 44C41.2782 44 39.8008 45.4775 39.8008 47.3C39.8008 49.1225 41.2782 50.6 43.1008 50.6Z" fill="#26DB95"/>
<path d="M138.601 6.6C140.423 6.6 141.901 5.12254 141.901 3.3C141.901 1.47746 140.423 0 138.601 0C136.778 0 135.301 1.47746 135.301 3.3C135.301 5.12254 136.778 6.6 138.601 6.6Z" fill="#26DB95"/>
<path d="M94.7004 10.3C96.5229 10.3 98.0004 8.82249 98.0004 6.99995C98.0004 5.17741 96.5229 3.69995 94.7004 3.69995C92.8778 3.69995 91.4004 5.17741 91.4004 6.99995C91.4004 8.82249 92.8778 10.3 94.7004 10.3Z" fill="#26DB95"/>
<path d="M197.199 200.6H194.199C194.199 196.8 196.699 194.9 198.799 193.3C200.899 191.7 202.199 190.6 202.199 188.4C202.199 186.2 200.899 185.1 198.799 183.5C196.799 181.9 194.199 180 194.199 176.2C194.199 172.4 196.699 170.5 198.799 168.9C200.899 167.3 202.199 166.2 202.199 164H205.199C205.199 167.8 202.699 169.7 200.599 171.3C198.499 172.9 197.199 174 197.199 176.2C197.199 178.4 198.499 179.5 200.599 181.1C202.599 182.7 205.199 184.6 205.199 188.4C205.199 192.2 202.699 194.1 200.599 195.7C198.499 197.3 197.199 198.4 197.199 200.6Z" fill="#26DB95"/>
<path d="M69.1992 71H66.1992C66.1992 67.1 68.6992 65 70.7992 63.4001C72.8992 61.7001 74.1992 60.5 74.1992 58.1C74.1992 55.7 72.8992 54.5 70.7992 52.8C68.7992 51.2 66.1992 49.1 66.1992 45.2001C66.1992 41.3001 68.6992 39.2 70.7992 37.6C72.8992 35.9 74.1992 34.7 74.1992 32.3H77.1992C77.1992 36.2 74.6992 38.3001 72.5992 39.9001C70.4992 41.6001 69.1992 42.8001 69.1992 45.2001C69.1992 47.6 70.4992 48.8 72.5992 50.5C74.5992 52.1 77.1992 54.2 77.1992 58.1C77.1992 62 74.6992 64.1 72.5992 65.7C70.4992 67.4 69.1992 68.6 69.1992 71Z" fill="#26DB95"/>
</svg>
