<svg width="24" height="24" viewBox="0 0 24 24" fill="none" xmlns="http://www.w3.org/2000/svg">
<path fill-rule="evenodd" clip-rule="evenodd" d="M11.4723 0.0624L3.69454 1.92907C2.69979 2.16781 2 3.04306 2 4.04848V13.3234C2 16.9951 4.13046 20.346 7.49012 21.9587L11.512 23.8892C11.666 23.963 11.833 24 12 24C12.167 24 12.334 23.963 12.488 23.8892L16.5099 21.9587C19.8696 20.346 22 16.9951 22 13.3234V4.04848C22 3.04306 21.3002 2.16781 20.3054 1.92907L12.5277 0.0624C12.3543 0.0208036 12.1772 0 12 0C11.8228 0 11.6457 0.0208036 11.4723 0.0624ZM17.2301 9.49867C17.664 9.07264 17.664 8.38191 17.2301 7.95589C16.7962 7.52986 16.0927 7.52986 15.6588 7.95588L10.8889 12.6389L8.34122 10.1377C7.9073 9.71168 7.20379 9.71168 6.76988 10.1377C6.33597 10.5637 6.33597 11.2545 6.76989 11.6805L10.1032 14.9532C10.5371 15.3792 11.2407 15.3792 11.6746 14.9532L17.2301 9.49867Z" fill="#BEC6D3"/>
</svg>
