<svg width="24" height="24" viewBox="0 0 24 24" fill="none" xmlns="http://www.w3.org/2000/svg">
<path d="M12.0008 12.4626C15.4294 12.4626 18.2321 9.6599 18.2321 6.2313C18.2321 2.80271 15.4294 0 12.0008 0C8.57219 0 5.76953 2.80271 5.76953 6.2313C5.76953 9.6599 8.57224 12.4626 12.0008 12.4626Z" fill="#BEC6D3"/>
<path d="M22.6948 17.4423C22.5315 17.0341 22.3139 16.6532 22.069 16.2994C20.8173 14.449 18.8853 13.2246 16.7085 12.9252C16.4364 12.8981 16.137 12.9524 15.9193 13.1157C14.7765 13.9593 13.416 14.3946 12.001 14.3946C10.586 14.3946 9.22543 13.9593 8.08257 13.1157C7.86486 12.9524 7.56554 12.8708 7.29345 12.9252C5.11658 13.2246 3.15741 14.449 1.93293 16.2994C1.68804 16.6532 1.47033 17.0613 1.3071 17.4423C1.22548 17.6056 1.25267 17.796 1.33429 17.9593C1.55199 18.3402 1.82408 18.7212 2.06897 19.0477C2.44991 19.5648 2.85809 20.0273 3.32069 20.4627C3.70163 20.8436 4.13699 21.1974 4.57241 21.5511C6.72205 23.1566 9.3071 24.0001 11.9738 24.0001C14.6404 24.0001 17.2255 23.1565 19.3751 21.5511C19.8105 21.2246 20.2458 20.8436 20.6268 20.4627C21.0622 20.0273 21.4976 19.5647 21.8786 19.0477C22.1506 18.694 22.3956 18.3402 22.6132 17.9593C22.7492 17.796 22.7764 17.6055 22.6948 17.4423Z" fill="#BEC6D3"/>
</svg>
