<svg width="80" height="80" viewBox="0 0 80 80" fill="none" xmlns="http://www.w3.org/2000/svg">
<g clip-path="url(#clip0_395_76)">
<path d="M40 80C62.0914 80 80 62.0914 80 40C80 17.9086 62.0914 0 40 0C17.9086 0 0 17.9086 0 40C0 62.0914 17.9086 80 40 80Z" fill="white"/>
<path d="M79.9125 42.617L71.6102 34.3148L51.31 33.4465L27.2499 9.38623L21.6782 11.6034L20.5063 24.597L24.0029 28.0937L18.5413 29.2898L25.9944 36.743L4.80566 53.1011L30.5879 78.8831C33.6066 79.6112 36.7577 79.9998 40 79.9998C61.2118 79.9998 78.5641 63.4881 79.9125 42.617Z" fill="#ECEEF0"/>
<path d="M39.922 34.3149L41.2503 33.3774L42.5425 34.3149L44.1052 48.2688H38.3594L39.922 34.3149Z" fill="#5A5A5A"/>
<path d="M4.80566 34.3149H39.9219V48.2688L4.80566 46.7062V34.3149Z" fill="#9F9FA5"/>
<path d="M42.567 17.2344H54.0882C54.9612 17.2344 55.7956 17.5939 56.3951 18.2283L66.1801 28.5814L71.0578 33.4944C71.5473 33.9873 71.822 34.6539 71.822 35.3487V36.7588L68.6968 40.17L71.822 43.5812V51.3956H42.542L42.567 17.2344Z" fill="#FFB739"/>
<path d="M71.8226 40.17L69.8524 41.7325L66.1348 40.17V38.4018C66.1348 37.4944 66.8704 36.7588 67.7777 36.7588H71.8226V40.17Z" fill="#E3EAEE"/>
<path d="M71.8226 43.5812H67.7777C66.8704 43.5812 66.1348 42.8455 66.1348 41.9382V40.1699H71.8226V43.5812Z" fill="#F67E00"/>
<path d="M53.7474 19.5088H45.209V30.3116H61.8212L63.3838 29.3182L53.7474 19.5088Z" fill="#7ED7F5"/>
<path d="M63.3841 34.0049H56.9541V32.7286C56.9541 30.8446 58.4814 29.3174 60.3654 29.3174H63.3839V34.0049H63.3841Z" fill="#FFD17E"/>
<path d="M4.80566 46.7061V53.1012H40L41.5627 49.5812L40 46.7061H4.80566Z" fill="#DDDDE1"/>
<path d="M40 46.7061H74.1661V53.1011H40V46.7061Z" fill="#B8B8BE"/>
<path d="M58.7765 58.7044C62.813 58.7044 66.0853 55.4322 66.0853 51.3957C66.0853 47.3592 62.813 44.0869 58.7765 44.0869C54.74 44.0869 51.4678 47.3592 51.4678 51.3957C51.4678 55.4322 54.74 58.7044 58.7765 58.7044Z" fill="#32393F"/>
<path d="M58.7768 55.3006C60.9333 55.3006 62.6814 53.5524 62.6814 51.3959C62.6814 49.2394 60.9333 47.4912 58.7768 47.4912C56.6203 47.4912 54.8721 49.2394 54.8721 51.3959C54.8721 53.5524 56.6203 55.3006 58.7768 55.3006Z" fill="#7C8186"/>
<path d="M15.7921 58.7044C19.8287 58.7044 23.1009 55.4322 23.1009 51.3957C23.1009 47.3592 19.8287 44.0869 15.7921 44.0869C11.7556 44.0869 8.4834 47.3592 8.4834 51.3957C8.4834 55.4322 11.7556 58.7044 15.7921 58.7044Z" fill="#5A5A5A"/>
<path d="M15.7924 55.3006C17.9489 55.3006 19.6971 53.5524 19.6971 51.3959C19.6971 49.2394 17.9489 47.4912 15.7924 47.4912C13.6359 47.4912 11.8877 49.2394 11.8877 51.3959C11.8877 53.5524 13.6359 55.3006 15.7924 55.3006Z" fill="#9F9FA5"/>
<path d="M22.8496 8.55615H20.5059V17.2341L21.6776 18.7968L22.8496 17.2341V8.55615Z" fill="#5A5A5A"/>
<path d="M22.8498 22.4187V17.2339H20.506V24.5969H21.6779C22.7118 24.5969 23.5529 25.4381 23.5529 26.472C23.5529 27.5059 22.7118 28.347 21.6779 28.347C20.644 28.347 19.8027 27.5059 19.8027 26.472H17.459C17.459 28.7983 19.3515 30.6908 21.6779 30.6908C24.0041 30.6908 25.8966 28.7983 25.8966 26.472C25.8966 24.5523 24.6076 22.9278 22.8498 22.4187Z" fill="#DDDDE1"/>
<path d="M25.0713 8.55615H20.5059L33.0059 34.3147H39.9996L40.9371 32.7012L39.9996 30.1235L27.8741 10.1341C27.2799 9.15443 26.2173 8.55615 25.0713 8.55615Z" fill="#FFD17E"/>
<path d="M40 30.1235V34.3148H42.5423L40 30.1235Z" fill="#FFB739"/>
</g>
<defs>
<clipPath id="clip0_395_76">
<rect width="80" height="80" fill="white"/>
</clipPath>
</defs>
</svg>
