<svg width="24" height="24" viewBox="0 0 24 24" fill="none" xmlns="http://www.w3.org/2000/svg">
<path d="M20.184 0H10.2261V6.75619C10.2261 7.20338 9.86353 7.56591 9.41634 7.56591H2.66016V22.8433C2.66016 23.4821 3.17808 24 3.81689 24H20.184C20.8229 24 21.3408 23.4821 21.3408 22.8433V1.15673C21.3408 0.517922 20.8229 0 20.184 0ZM15.6248 19.2076H9.03206C8.58488 19.2076 8.22234 18.8451 8.22234 18.3979C8.22234 17.9507 8.58488 17.5882 9.03206 17.5882H15.6248C16.072 17.5882 16.4346 17.9507 16.4346 18.3979C16.4346 18.8451 16.072 19.2076 15.6248 19.2076ZM15.6248 15.3985H9.03206C8.58488 15.3985 8.22234 15.036 8.22234 14.5888C8.22234 14.1416 8.58488 13.7791 9.03206 13.7791H15.6248C16.072 13.7791 16.4346 14.1416 16.4346 14.5888C16.4346 15.036 16.072 15.3985 15.6248 15.3985ZM15.6248 11.5895H9.03206C8.58488 11.5895 8.22234 11.227 8.22234 10.7798C8.22234 10.3326 8.58488 9.97008 9.03206 9.97008H15.6248C16.072 9.97008 16.4346 10.3326 16.4346 10.7798C16.4346 11.227 16.072 11.5895 15.6248 11.5895Z" fill="#BEC6D3"/>
<path d="M8.59688 0C8.29013 0 7.99594 0.121828 7.779 0.338859L2.99902 5.11866C2.78208 5.33559 2.66016 5.62978 2.66016 5.93653V5.94642H8.60672V0H8.59688Z" fill="#BEC6D3"/>
</svg>
