<svg width="36" height="36" viewBox="0 0 36 36" fill="none" xmlns="http://www.w3.org/2000/svg">
<path d="M20.25 16.5C21.9069 16.5 23.25 15.1569 23.25 13.5C23.25 11.8431 21.9069 10.5 20.25 10.5C18.5931 10.5 17.25 11.8431 17.25 13.5C17.25 15.1569 18.5931 16.5 20.25 16.5Z" fill="#BEC6D3"/>
<path d="M3 25.875C2.70163 25.875 2.41548 25.9935 2.2045 26.2045C1.99353 26.4155 1.875 26.7016 1.875 27C1.875 27.2984 1.99353 27.5845 2.2045 27.7955C2.41548 28.0065 2.70163 28.125 3 28.125H6.375V30C6.375 31.094 6.8096 32.1432 7.58318 32.9168C8.35677 33.6904 9.40598 34.125 10.5 34.125H30C31.094 34.125 32.1432 33.6904 32.9168 32.9168C33.6904 32.1432 34.125 31.094 34.125 30V6C34.125 4.90598 33.6904 3.85677 32.9168 3.08318C32.1432 2.3096 31.094 1.875 30 1.875H10.5C9.40598 1.875 8.35677 2.3096 7.58318 3.08318C6.8096 3.85677 6.375 4.90598 6.375 6V7.875H3C2.70163 7.875 2.41548 7.99353 2.2045 8.2045C1.99353 8.41548 1.875 8.70163 1.875 9C1.875 9.29837 1.99353 9.58452 2.2045 9.7955C2.41548 10.0065 2.70163 10.125 3 10.125H6.375V13.875H3C2.70163 13.875 2.41548 13.9935 2.2045 14.2045C1.99353 14.4155 1.875 14.7016 1.875 15C1.875 15.2984 1.99353 15.5845 2.2045 15.7955C2.41548 16.0065 2.70163 16.125 3 16.125H6.375V19.875H3C2.70163 19.875 2.41548 19.9935 2.2045 20.2045C1.99353 20.4155 1.875 20.7016 1.875 21C1.875 21.2984 1.99353 21.5845 2.2045 21.7955C2.41548 22.0065 2.70163 22.125 3 22.125H6.375V25.875H3ZM20.25 8.25C21.2884 8.25 22.3034 8.55791 23.1667 9.13478C24.0301 9.71166 24.703 10.5316 25.1004 11.4909C25.4977 12.4502 25.6017 13.5058 25.3991 14.5242C25.1966 15.5426 24.6965 16.4781 23.9623 17.2123C23.2281 17.9465 22.2926 18.4466 21.2742 18.6491C20.2558 18.8517 19.2002 18.7477 18.2409 18.3504C17.2816 17.953 16.4617 17.2801 15.8848 16.4167C15.3079 15.5534 15 14.5384 15 13.5C15 12.1076 15.5531 10.7723 16.5377 9.78769C17.5223 8.80312 18.8576 8.25 20.25 8.25ZM20.25 20.25C22.1942 20.2608 24.0651 20.9931 25.5 22.305C26.6819 23.4043 27.4499 24.8766 27.675 26.475C27.6864 26.755 27.593 27.0291 27.413 27.2438C27.2329 27.4585 26.9793 27.5983 26.7016 27.6358C26.4239 27.6733 26.1423 27.6059 25.9117 27.4467C25.6811 27.2875 25.5183 27.048 25.455 26.775C25.2918 25.714 24.7799 24.7376 24 24C22.9814 23.0394 21.6351 22.503 20.235 22.5C18.9956 22.4699 17.7865 22.8844 16.8262 23.6686C15.866 24.4527 15.2182 25.5546 15 26.775C14.9669 27.0454 14.8355 27.2942 14.6308 27.474C14.4261 27.6538 14.1624 27.752 13.89 27.75H13.74C13.5937 27.7316 13.4525 27.6842 13.3247 27.6106C13.1969 27.537 13.085 27.4387 12.9957 27.3214C12.9063 27.2041 12.8412 27.0702 12.8042 26.9274C12.7671 26.7847 12.7589 26.636 12.78 26.49C13.0796 24.7315 13.9962 23.1373 15.3653 21.9936C16.7343 20.85 18.4662 20.2318 20.25 20.25Z" fill="#BEC6D3"/>
</svg>
