<svg width="177" height="84" fill="none" xmlns="http://www.w3.org/2000/svg"><g clip-path="url(#clip0)"><path d="M147.3 59.7H7c-3.3 0-6-2.7-6-6V7c0-3.3 2.7-6 6-6h140.3c3.3 0 6 2.7 6 6v46.7c0 3.3-2.7 6-6 6z" fill="#fff" stroke="#979DA6" stroke-width="2" stroke-miterlimit="10"/><path d="M157.7 70.7H17.3c-3.3 0-6-2.7-6-6V18c0-3.3 2.7-6 6-6h140.3c3.3 0 6 2.7 6 6v46.7c.1 3.3-2.6 6-5.9 6z" fill="#fff" stroke="#979DA6" stroke-width="2" stroke-miterlimit="10"/><path d="M169.3 82.3H29c-3.3 0-6-2.7-6-6V29.7c0-3.3 2.7-6 6-6h140.3c3.3 0 6 2.7 6 6v46.7c0 3.2-2.7 5.9-6 5.9z" fill="#fff" stroke="#979DA6" stroke-width="2" stroke-miterlimit="10"/><path d="M55.2 74.6c11.487 0 20.8-9.313 20.8-20.8S66.687 33 55.2 33c-11.488 0-20.8 9.313-20.8 20.8s9.312 20.8 20.8 20.8z" fill="#979DA6"/><path d="M154.7 41.7H89.9c-1.4 0-2.5-1.1-2.5-2.5s1.1-2.5 2.5-2.5h64.9c1.4 0 2.5 1.1 2.5 2.5-.1 1.3-1.2 2.5-2.6 2.5zM154.7 55.5H89.9c-1.4 0-2.5-1.1-2.5-2.5s1.1-2.5 2.5-2.5h64.9c1.4 0 2.5 1.1 2.5 2.5-.1 1.4-1.2 2.5-2.6 2.5zM105.9 69.3h-16c-1.4 0-2.5-1.1-2.5-2.5s1.1-2.5 2.5-2.5h16c1.4 0 2.5 1.1 2.5 2.5s-1.1 2.5-2.5 2.5zM138.7 69.3h-22.2c-1.4 0-2.5-1.1-2.5-2.5s1.1-2.5 2.5-2.5h22.2c1.4 0 2.5 1.1 2.5 2.5s-1.1 2.5-2.5 2.5z" fill="#DBDBDC"/><path d="M55 52.5c2.9 0 5.3-2.3 5.3-5 0-2.8-2.4-5-5.3-5s-5.3 2.3-5.3 5c.1 2.8 2.4 5 5.3 5zM55 66.3c-4.4 0-8.2-2.2-10.5-5.4 0-3.4 7-5.2 10.5-5.2s10.5 1.8 10.5 5.2c-2.3 3.2-6.1 5.4-10.5 5.4z" fill="#fff"/></g><defs><clipPath id="clip0"><path fill="#fff" d="M0 0h176.3v83.3H0z"/></clipPath></defs></svg>