<svg width="80" height="80" viewBox="0 0 80 80" fill="none" xmlns="http://www.w3.org/2000/svg">
<g clip-path="url(#clip0_395_56)">
<path d="M80 40C80 52.6181 74.1572 63.8681 65.0298 71.1992H14.9702C5.84281 63.8681 0 52.6181 0 40C0 17.9086 17.9086 0 40 0C62.0914 0 80 17.9086 80 40Z" fill="white"/>
<path d="M52.5921 12.8469L50.9323 14.5067L48.5518 12.1264L47.7655 12.9127L44.994 10.1411L42.9904 12.1447L40.9866 10.1411L38.9646 12.1631L36.9426 10.1411L34.8702 12.2135L32.7979 10.1411L29.8448 13.0942L29.2401 12.4896L25.6526 16.0771L26.9363 17.3608L24.2463 20.0508L25.7721 21.5766L23.511 23.8377L27.2921 27.6188L21.6074 33.3035L26.8615 38.5575L24.7473 40.6717L55.2748 71.1992H65.0301C74.0966 63.9169 79.9194 52.7672 79.9966 40.2513L52.5921 12.8469Z" fill="#ECEEF0"/>
<path d="M32.3711 39.8164V55.0747H40.0002L42.0314 47.4455L40.0002 39.8164H32.3711Z" fill="#FCBEAC"/>
<path d="M40 39.8164H47.6291V55.0745H40V39.8164Z" fill="#F7A690"/>
<path d="M34.0262 16.4629C30.9087 16.4629 28.3817 19.4641 28.3817 23.1663V26.269C27.954 25.872 27.4783 25.6765 27.0156 25.759C25.8634 25.9643 25.2289 27.8121 25.5984 29.8862C25.9679 31.9602 27.1784 33.479 28.3306 33.2737L39.9998 45.307L42.6723 29.7149L39.9998 16.4629H34.0262Z" fill="#FDCDBF"/>
<path d="M52.9333 25.7127C52.488 25.6351 52.0317 25.8148 51.6183 26.1832V23.1663C51.6183 19.4641 49.0911 16.4629 45.9737 16.4629H40V45.3068L51.6713 33.2257C52.8242 33.427 54.0031 31.9099 54.3652 29.8346C54.7272 27.7593 54.0863 25.9138 52.9333 25.7127Z" fill="#FCBEAC"/>
<path d="M39.9996 24.0446L41.4058 17.4724L39.9996 12.1265C37.0252 12.3505 33.4855 13.2202 30.953 16.0408C28.3996 18.8847 28.0433 22.3474 27.9804 23.2538C27.9243 24.0621 28.3814 34.4526 28.3814 34.4526C28.3814 35.4757 28.7171 36.4705 29.3368 37.2846L34.0404 43.4637C34.9246 44.6254 36.3008 45.3072 37.7607 45.3072H39.9996L41.0941 42.941L39.9996 40.6569H36.8052L35.8943 39.5771L36.8052 38.0816H39.9996L40.6338 36.8472L39.9996 35.6437H35.4116L33.6275 37.6179C31.5829 35.9444 30.3971 33.4418 30.3971 30.7996C30.3971 30.7996 30.4958 22.7954 30.7113 22.5708C31.8721 21.3601 34.66 24.104 39.9996 24.0446Z" fill="#555A65"/>
<path d="M40 24.0447V12.1265C42.9744 12.3505 46.5141 13.2202 49.0466 16.0408C51.6 18.8847 51.9563 22.3474 52.0192 23.2538C52.0753 24.0621 51.6181 34.4526 51.6181 34.4526C51.6181 35.4757 51.2825 36.4705 50.6628 37.2846L45.9592 43.4636C45.075 44.6254 43.6988 45.3072 42.2389 45.3072H40V40.6571H43.1944L44.1053 39.5772L43.1944 38.0818H40V35.6438H44.588L46.372 37.618C48.4167 35.9446 49.6025 33.4419 49.6025 30.7997C49.6025 30.7997 49.5038 22.7955 49.2883 22.571C48.1275 21.3602 45.3395 24.1041 40 24.0447Z" fill="#333940"/>
<path d="M39.9999 38.0575H27.3618V32.7334H24.7471V40.672H39.9999V38.0575Z" fill="#87A3D6"/>
<path d="M26.8475 28.5544V21.745C26.8475 16.5427 31.08 12.3104 36.2823 12.3104H40.0003L40.7939 10.8339L40.0003 9.17285H36.2821C29.3498 9.17285 23.71 14.8127 23.71 21.745V28.5544H26.8475Z" fill="#87A3D6"/>
<path d="M56.2903 21.745C56.2903 14.8127 50.6505 9.17285 43.718 9.17285H40V12.3104H43.718C48.9203 12.3104 53.1528 16.5429 53.1528 21.745V28.5544H56.2903V21.745Z" fill="#87A3D6"/>
<path d="M55.7693 22.0928H51.8786L51.6182 34.3942H55.7693C57.813 34.3942 59.4697 32.7375 59.4697 30.6939V25.7932C59.4697 23.7496 57.813 22.0928 55.7693 22.0928Z" fill="#EE4A41"/>
<path d="M24.2309 22.0928H28.1215L28.3793 34.3942H24.2307C22.187 34.3942 20.5303 32.7375 20.5303 30.6939V25.7932C20.5304 23.7496 22.1871 22.0928 24.2309 22.0928Z" fill="#FB735D"/>
<path d="M39.9996 54.5659L32.3702 48.4097H22.9882C22.1616 48.4097 21.3636 48.535 20.6133 48.7673C17.3444 49.7794 14.9697 52.8259 14.9697 56.4275V61.4983L23.5933 76.4878C26.3661 77.7369 29.3047 78.679 32.3702 79.2715C34.8397 79.7487 37.3905 80.0001 39.9996 80.0001L42.6721 67.3439L39.9996 54.5659Z" fill="#E1E6EF"/>
<path d="M59.3862 48.7673C58.6359 48.535 57.838 48.4097 57.0114 48.4097H47.6291L40 54.5661V80.0001C42.6091 80.0001 45.1595 79.7487 47.6291 79.2715C50.6939 78.6794 53.6339 77.7364 56.4062 76.4878L65.0298 61.4984V56.4276C65.0298 52.8259 62.6552 49.7794 59.3862 48.7673Z" fill="#CFD7E5"/>
<path d="M56.4062 76.4874C59.5113 75.0885 62.4066 73.3063 65.0298 71.1991V61.498H56.4062V76.4874Z" fill="#FCBEAC"/>
<path d="M14.9697 61.4982V71.1993C17.593 73.3066 20.4883 75.0887 23.5933 76.4876V61.498H14.9697V61.4982Z" fill="#FDCDBF"/>
</g>
<defs>
<clipPath id="clip0_395_56">
<rect width="80" height="80" fill="white"/>
</clipPath>
</defs>
</svg>
