<svg width="36" height="36" viewBox="0 0 36 36" fill="none" xmlns="http://www.w3.org/2000/svg">
<path d="M32.9999 4.5H3.00015C1.35044 4.5 0 5.85044 0 7.50015V28.4999C0 30.1496 1.35044 31.5 3.00015 31.5H32.9999C34.6496 31.5 36 30.1496 36 28.4999V7.50015C36 5.85044 34.6496 4.5 32.9999 4.5ZM10.4999 10.4999C12.1585 10.4999 13.5 11.8431 13.5 13.5C13.5 15.1569 12.1585 16.5001 10.4999 16.5001C8.84162 16.5001 7.50015 15.1569 7.50015 13.5C7.50015 11.8431 8.84162 10.4999 10.4999 10.4999ZM16.5001 25.5001H4.5V22.5013C4.5 20.8444 5.84464 19.5016 7.50015 19.5016L13.5 19.4998C15.1582 19.4998 16.5001 20.843 16.5001 22.4999V25.5001ZM31.5 25.5001H19.4999V22.5H31.5V25.5001ZM31.5 19.4999H19.4999V16.5001H31.5V19.4999ZM31.5 13.5H16.5001V10.4999H31.5V13.5Z" fill="#BEC6D3"/>
</svg>
