<svg xmlns="http://www.w3.org/2000/svg" viewBox="0 0 24 24"><defs><style>.cls-1{fill:none;}</style></defs><title>Fax</title><g id="Grid_01"><rect x="7" y="5" width="10" height="7" rx="0.94" ry="0.94" fill="#626976"/><path fill="#626976" d="M19.33,10H18v2.06a.94.94,0,0,1-.94.94H6.94A.94.94,0,0,1,6,12.06V10H4.67A1.67,1.67,0,0,0,3,11.67v6.66A1.67,1.67,0,0,0,4.67,20H19.33A1.67,1.67,0,0,0,21,18.33V11.67A1.67,1.67,0,0,0,19.33,10ZM6,18a1,1,0,1,1,1-1A1,1,0,0,1,6,18Z"/><rect class="cls-1" width="24" height="24"/></g></svg>