<svg width="24" height="24" viewBox="0 0 24 24" fill="none" xmlns="http://www.w3.org/2000/svg">
<path d="M16.06 5H7.94C7.42085 5 7 5.42085 7 5.94V11.06C7 11.5791 7.42085 12 7.94 12H16.06C16.5791 12 17 11.5791 17 11.06V5.94C17 5.42085 16.5791 5 16.06 5Z" fill="#979DA6"/>
<path d="M19.33 10H18V12.06C18 12.3093 17.901 12.5484 17.7247 12.7247C17.5484 12.901 17.3093 13 17.06 13H6.94C6.6907 13 6.4516 12.901 6.27532 12.7247C6.09904 12.5484 6 12.3093 6 12.06V10H4.67C4.45069 10 4.23353 10.0432 4.03092 10.1271C3.8283 10.211 3.64421 10.3341 3.48913 10.4891C3.33406 10.6442 3.21105 10.8283 3.12712 11.0309C3.0432 11.2335 3 11.4507 3 11.67V18.33C3 18.7729 3.17595 19.1977 3.48913 19.5109C3.80232 19.8241 4.22709 20 4.67 20H19.33C19.5493 20 19.7665 19.9568 19.9691 19.8729C20.1717 19.789 20.3558 19.6659 20.5109 19.5109C20.6659 19.3558 20.789 19.1717 20.8729 18.9691C20.9568 18.7665 21 18.5493 21 18.33V11.67C21 11.4507 20.9568 11.2335 20.8729 11.0309C20.789 10.8283 20.6659 10.6442 20.5109 10.4891C20.3558 10.3341 20.1717 10.211 19.9691 10.1271C19.7665 10.0432 19.5493 10 19.33 10ZM6 18C5.80222 18 5.60888 17.9414 5.44443 17.8315C5.27998 17.7216 5.15181 17.5654 5.07612 17.3827C5.00043 17.2 4.98063 16.9989 5.01921 16.8049C5.0578 16.6109 5.15304 16.4327 5.29289 16.2929C5.43275 16.153 5.61093 16.0578 5.80491 16.0192C5.99889 15.9806 6.19996 16.0004 6.38268 16.0761C6.56541 16.1518 6.72159 16.28 6.83147 16.4444C6.94135 16.6089 7 16.8022 7 17C7 17.2652 6.89464 17.5196 6.70711 17.7071C6.51957 17.8946 6.26522 18 6 18Z" fill="#979DA6"/>
</svg>
