<svg width="160" height="160" viewBox="0 0 160 160" fill="none" xmlns="http://www.w3.org/2000/svg">
<g clip-path="url(#clip0_529_412)">
<path d="M139.13 62.6092L80.0004 100.87L20.87 62.6092V3.47884C20.8292 1.59863 22.3204 0.0415768 24.2006 0.000816103C24.2498 -0.000162153 24.2991 -0.000162153 24.3483 0.000816103H135.652C137.532 -0.0399446 139.09 1.45124 139.13 3.33145C139.131 3.38069 139.131 3.42993 139.13 3.47917V62.6092Z" fill="#F1F2F2"/>
<path d="M20.8695 62.6092L0 48.6961L20.8695 27.8267V62.6092Z" fill="#F6B445"/>
<path d="M159.998 48.6961L139.129 62.6092V27.8267L159.998 48.6961Z" fill="#F6B445"/>
<path d="M139.131 62.2963L160 48.6963V146.087C159.994 149.777 158.531 153.314 155.931 155.931L132.174 132.174L93.9135 93.9136L92.9395 92.4178L139.131 62.2963Z" fill="#FED049"/>
<path d="M132.174 132.174L155.931 155.931C153.314 158.531 149.776 159.994 146.087 160H13.9139C10.2245 159.994 6.68715 158.531 4.07031 155.931L27.8266 132.174L66.0872 93.9137L67.0612 92.418L80.0003 100.87L92.9393 92.418L93.9134 93.9137L132.174 132.174Z" fill="#F6B445"/>
<path d="M67.0604 92.4178L66.0864 93.9136L27.8258 132.174L4.06955 155.93C1.46901 153.314 0.00652171 149.776 0 146.087V48.6963L67.0604 92.4178Z" fill="#FED049"/>
<path d="M118.26 83.4788C141.312 83.4788 159.999 64.7917 159.999 41.7399C159.999 18.6881 141.312 0.000976562 118.26 0.000976562C95.2086 0.000976562 76.5215 18.6881 76.5215 41.7399C76.5215 64.7917 95.2086 83.4788 118.26 83.4788Z" fill="#49AAEE"/>
<path d="M89.7156 33.5936C90.015 32.6722 91.3184 32.6722 91.6177 33.5936L92.837 37.346C92.9708 37.758 93.3548 38.037 93.788 38.037H97.7336C98.7023 38.037 99.1051 39.2766 98.3214 39.846L95.1293 42.1651C94.7789 42.4198 94.6322 42.8712 94.7661 43.2832L95.9853 47.0356C96.2847 47.9569 95.2302 48.7231 94.4465 48.1537L91.2545 45.8345C90.904 45.5799 90.4294 45.5799 90.0789 45.8345L86.8869 48.1537C86.1031 48.7231 85.0487 47.9569 85.348 47.0356L86.5673 43.2832C86.7011 42.8712 86.5545 42.4198 86.204 42.1651L83.012 39.846C82.2282 39.2766 82.631 38.037 83.5997 38.037H87.5453C87.9785 38.037 88.3625 37.758 88.4964 37.346L89.7156 33.5936Z" fill="white"/>
<path d="M108.382 33.5936C108.681 32.6722 109.984 32.6722 110.284 33.5936L111.503 37.346C111.637 37.758 112.021 38.037 112.454 38.037H116.4C117.368 38.037 117.771 39.2766 116.987 39.846L113.795 42.1651C113.445 42.4198 113.298 42.8712 113.432 43.2832L114.651 47.0356C114.951 47.9569 113.896 48.7231 113.112 48.1537L109.92 45.8345C109.57 45.5799 109.095 45.5799 108.745 45.8345L105.553 48.1537C104.769 48.7231 103.715 47.9569 104.014 47.0356L105.233 43.2832C105.367 42.8712 105.22 42.4198 104.87 42.1651L101.678 39.846C100.894 39.2766 101.297 38.037 102.266 38.037H106.211C106.645 38.037 107.029 37.758 107.162 37.346L108.382 33.5936Z" fill="white"/>
<path d="M127.05 33.5936C127.349 32.6722 128.652 32.6722 128.952 33.5936L130.171 37.346C130.305 37.758 130.689 38.037 131.122 38.037H135.068C136.036 38.037 136.439 39.2766 135.655 39.846L132.463 42.1651C132.113 42.4198 131.966 42.8712 132.1 43.2832L133.319 47.0356C133.619 47.9569 132.564 48.7231 131.78 48.1537L128.588 45.8345C128.238 45.5799 127.763 45.5799 127.413 45.8345L124.221 48.1537C123.437 48.7231 122.383 47.9569 122.682 47.0356L123.901 43.2832C124.035 42.8712 123.888 42.4198 123.538 42.1651L120.346 39.846C119.562 39.2766 119.965 38.037 120.934 38.037H124.879C125.313 38.037 125.696 37.758 125.83 37.346L127.05 33.5936Z" fill="white"/>
<path d="M145.716 33.5936C146.015 32.6722 147.318 32.6722 147.618 33.5936L148.837 37.346C148.971 37.758 149.355 38.037 149.788 38.037H153.734C154.702 38.037 155.105 39.2766 154.321 39.846L151.129 42.1651C150.779 42.4198 150.632 42.8712 150.766 43.2832L151.985 47.0356C152.285 47.9569 151.23 48.7231 150.446 48.1537L147.254 45.8345C146.904 45.5799 146.429 45.5799 146.079 45.8345L142.887 48.1537C142.103 48.7231 141.049 47.9569 141.348 47.0356L142.567 43.2832C142.701 42.8712 142.554 42.4198 142.204 42.1651L139.012 39.846C138.228 39.2766 138.631 38.037 139.6 38.037H143.545C143.979 38.037 144.362 37.758 144.496 37.346L145.716 33.5936Z" fill="white"/>
</g>
<defs>
<clipPath id="clip0_529_412">
<rect width="160" height="160" fill="white"/>
</clipPath>
</defs>
</svg>
