<svg width="18" height="21" viewBox="0 0 18 21" fill="none" xmlns="http://www.w3.org/2000/svg">
<path d="M0 6.00005L8.445 0.370054C8.60933 0.260415 8.80245 0.201904 9 0.201904C9.19755 0.201904 9.39067 0.260415 9.555 0.370054L18 6.00005V20.0001C18 20.2653 17.8946 20.5196 17.7071 20.7072C17.5196 20.8947 17.2652 21.0001 17 21.0001H1C0.734784 21.0001 0.48043 20.8947 0.292893 20.7072C0.105357 20.5196 0 20.2653 0 20.0001V6.00005ZM9 10.0001C9.53043 10.0001 10.0391 9.78934 10.4142 9.41427C10.7893 9.0392 11 8.53049 11 8.00005C11 7.46962 10.7893 6.96091 10.4142 6.58584C10.0391 6.21077 9.53043 6.00005 9 6.00005C8.46957 6.00005 7.96086 6.21077 7.58579 6.58584C7.21071 6.96091 7 7.46962 7 8.00005C7 8.53049 7.21071 9.0392 7.58579 9.41427C7.96086 9.78934 8.46957 10.0001 9 10.0001ZM5 15.0001V17.0001H13V15.0001H5ZM5 12.0001V14.0001H13V12.0001H5Z" fill="#979DA6"/>
</svg>
