<svg width="24" height="24" viewBox="0 0 24 24" fill="none" xmlns="http://www.w3.org/2000/svg">
<path d="M20.21 5H3.79C3.31526 5 2.85997 5.18859 2.52428 5.52428C2.18859 5.85997 2 6.31526 2 6.79V17.21C2 17.6847 2.18859 18.14 2.52428 18.4757C2.85997 18.8114 3.31526 19 3.79 19H20.21C20.6847 19 21.14 18.8114 21.4757 18.4757C21.8114 18.14 22 17.6847 22 17.21V6.79C22 6.31526 21.8114 5.85997 21.4757 5.52428C21.14 5.18859 20.6847 5 20.21 5ZM8.5 8C8.84612 8 9.18446 8.10264 9.47225 8.29493C9.76003 8.48722 9.98434 8.76053 10.1168 9.0803C10.2492 9.40008 10.2839 9.75194 10.2164 10.0914C10.1489 10.4309 9.98218 10.7427 9.73744 10.9874C9.4927 11.2322 9.18087 11.3989 8.84141 11.4664C8.50194 11.5339 8.15007 11.4992 7.8303 11.3668C7.51053 11.2343 7.23722 11.01 7.04493 10.7222C6.85264 10.4345 6.75 10.0961 6.75 9.75C6.75 9.28587 6.93437 8.84075 7.26256 8.51256C7.59075 8.18437 8.03587 8 8.5 8ZM12 16H5V14.42C5 13.25 7.33 12.61 8.5 12.61C9.67 12.61 12 13.25 12 14.42V16ZM18.5 14H13.5C13.3674 14 13.2402 13.9473 13.1464 13.8536C13.0527 13.7598 13 13.6326 13 13.5C13 13.3674 13.0527 13.2402 13.1464 13.1464C13.2402 13.0527 13.3674 13 13.5 13H18.5C18.6326 13 18.7598 13.0527 18.8536 13.1464C18.9473 13.2402 19 13.3674 19 13.5C19 13.6326 18.9473 13.7598 18.8536 13.8536C18.7598 13.9473 18.6326 14 18.5 14ZM18.5 12H13.5C13.3674 12 13.2402 11.9473 13.1464 11.8536C13.0527 11.7598 13 11.6326 13 11.5C13 11.3674 13.0527 11.2402 13.1464 11.1464C13.2402 11.0527 13.3674 11 13.5 11H18.5C18.6326 11 18.7598 11.0527 18.8536 11.1464C18.9473 11.2402 19 11.3674 19 11.5C19 11.6326 18.9473 11.7598 18.8536 11.8536C18.7598 11.9473 18.6326 12 18.5 12ZM18.5 10H13.5C13.3674 10 13.2402 9.94732 13.1464 9.85355C13.0527 9.75979 13 9.63261 13 9.5C13 9.36739 13.0527 9.24021 13.1464 9.14645C13.2402 9.05268 13.3674 9 13.5 9H18.5C18.6326 9 18.7598 9.05268 18.8536 9.14645C18.9473 9.24021 19 9.36739 19 9.5C19 9.63261 18.9473 9.75979 18.8536 9.85355C18.7598 9.94732 18.6326 10 18.5 10Z" fill="#979DA6"/>
</svg>
