<svg width="36" height="36" viewBox="0 0 36 36" fill="none" xmlns="http://www.w3.org/2000/svg">
<g clip-path="url(#clip0_395_853)">
<path d="M4.125 21H31.875C32.496 21 33 20.496 33 19.875V7.125C33 6.504 32.496 6 31.875 6H4.125C3.504 6 3 6.504 3 7.125V19.875C3 20.496 3.504 21 4.125 21ZM25.875 11.625C25.875 11.004 26.379 10.5 27 10.5C27.621 10.5 28.125 11.004 28.125 11.625V15.375C28.125 15.996 27.621 16.5 27 16.5C26.379 16.5 25.875 15.996 25.875 15.375V11.625ZM19.875 11.625C19.875 11.004 20.379 10.5 21 10.5C21.621 10.5 22.125 11.004 22.125 11.625V15.375C22.125 15.996 21.621 16.5 21 16.5C20.379 16.5 19.875 15.996 19.875 15.375V11.625ZM13.875 11.625C13.875 11.004 14.379 10.5 15 10.5C15.621 10.5 16.125 11.004 16.125 11.625V15.375C16.125 15.996 15.621 16.5 15 16.5C14.379 16.5 13.875 15.996 13.875 15.375V11.625ZM7.875 11.625C7.875 11.004 8.379 10.5 9 10.5C9.621 10.5 10.125 11.004 10.125 11.625V15.375C10.125 15.996 9.621 16.5 9 16.5C8.379 16.5 7.875 15.996 7.875 15.375V11.625Z" fill="#518ED1"/>
<path d="M34.5 22.5H1.5C0.672 22.5 0 23.172 0 24C0 24.828 0.672 25.5 1.5 25.5H3.417C3.159 25.9425 3 26.451 3 27C3 28.6545 4.3455 30 6 30C6.9 30 7.6995 29.5935 8.25 28.9635C8.8005 29.5935 9.6 30 10.5 30C12.1545 30 13.5 28.6545 13.5 27C13.5 26.451 13.341 25.9425 13.083 25.5H22.917C22.659 25.9425 22.5 26.451 22.5 27C22.5 28.6545 23.8455 30 25.5 30C26.4 30 27.1995 29.5935 27.75 28.9635C28.3005 29.5935 29.1 30 30 30C31.6545 30 33 28.6545 33 27C33 26.451 32.841 25.9425 32.583 25.5H34.5C35.328 25.5 36 24.828 36 24C36 23.172 35.328 22.5 34.5 22.5Z" fill="#518ED1"/>
</g>
<defs>
<clipPath id="clip0_395_853">
<rect width="36" height="36" fill="white"/>
</clipPath>
</defs>
</svg>
