<svg width="842" height="340" viewBox="0 0 842 340" fill="none" xmlns="http://www.w3.org/2000/svg">
<path d="M456.773 100.377C455.729 97.1097 454.326 94.1834 452.56 91.5981C450.831 88.9769 448.764 86.7509 446.352 84.9195C443.939 83.0525 441.185 81.6342 438.088 80.6647C435.029 79.6955 431.663 79.2107 427.991 79.2107C421.765 79.2107 416.148 80.8085 411.144 84.004C406.141 87.1998 402.182 91.8854 399.263 98.0611C396.386 104.201 394.944 111.723 394.944 120.628C394.944 129.569 396.404 137.127 399.319 143.303C402.234 149.478 406.232 154.164 411.305 157.36C416.382 160.555 422.16 162.153 428.64 162.153C434.652 162.153 439.889 160.933 444.354 158.491C448.852 156.049 452.326 152.602 454.773 148.15C457.259 143.662 458.502 138.383 458.502 132.315L462.821 133.123H431.178V119.389H474.646V131.939C474.646 141.202 472.666 149.245 468.707 156.067C464.783 162.853 459.347 168.096 452.399 171.794C445.486 175.492 437.567 177.341 428.64 177.341C418.633 177.341 409.849 175.044 402.29 170.448C394.766 165.852 388.897 159.335 384.686 150.897C380.473 142.423 378.367 132.369 378.367 120.736C378.367 111.939 379.592 104.039 382.04 97.038C384.488 90.0362 387.926 84.0938 392.354 79.2107C396.816 74.2915 402.056 70.5392 408.065 67.9541C414.115 65.3329 420.721 64.0225 427.882 64.0225C433.859 64.0225 439.421 64.9021 444.568 66.6615C449.752 68.4208 454.361 70.9163 458.393 74.148C462.461 77.3793 465.827 81.2215 468.491 85.6738C471.155 90.0902 472.953 94.9913 473.889 100.377H456.773ZM517.073 65.5304V175.833H500.388V65.5304H517.073ZM555.599 65.5304L586.379 155.367H587.619L618.399 65.5304H636.436L596.637 175.833H577.361L537.566 65.5304H555.599ZM655.022 175.833H637.31L677.108 65.5304H696.384L736.18 175.833H718.471L687.205 85.5658H686.34L655.022 175.833ZM657.993 132.639H715.447V146.642H657.993V132.639Z" fill="#363636"/>
<path d="M398.869 290H379.693V224.545H400.02C406.263 224.545 411.6 225.845 416.032 228.445C420.485 231.044 423.894 234.773 426.259 239.631C428.624 244.489 429.807 250.316 429.807 257.113C429.807 263.974 428.592 269.865 426.163 274.787C423.756 279.687 420.24 283.448 415.616 286.069C411.014 288.69 405.432 290 398.869 290ZM385.67 284.631H398.518C404.143 284.631 408.852 283.523 412.644 281.307C416.437 279.091 419.281 275.927 421.178 271.815C423.074 267.702 424.022 262.802 424.022 257.113C424.001 251.467 423.063 246.609 421.21 242.539C419.377 238.469 416.65 235.348 413.028 233.175C409.427 231.001 404.974 229.915 399.668 229.915H385.67V284.631ZM451.619 224.545V290H445.643V224.545H451.619ZM505.911 240.909C505.549 237.266 503.941 234.368 501.085 232.216C498.23 230.064 494.64 228.988 490.315 228.988C487.268 228.988 484.583 229.51 482.261 230.554C479.96 231.598 478.149 233.047 476.828 234.901C475.528 236.733 474.878 238.821 474.878 241.165C474.878 242.891 475.251 244.403 475.997 245.703C476.742 247.003 477.744 248.121 479.001 249.059C480.279 249.975 481.686 250.763 483.22 251.424C484.775 252.085 486.341 252.638 487.918 253.086L494.821 255.067C496.909 255.643 498.997 256.378 501.085 257.273C503.174 258.168 505.081 259.297 506.806 260.661C508.554 262.003 509.949 263.654 510.993 265.614C512.058 267.553 512.591 269.886 512.591 272.614C512.591 276.108 511.686 279.251 509.875 282.042C508.063 284.833 505.464 287.049 502.076 288.69C498.688 290.309 494.63 291.119 489.899 291.119C485.446 291.119 481.579 290.384 478.298 288.913C475.017 287.422 472.438 285.366 470.563 282.745C468.688 280.124 467.634 277.088 467.399 273.636H473.536C473.749 276.214 474.601 278.398 476.093 280.188C477.584 281.978 479.523 283.342 481.909 284.279C484.296 285.195 486.959 285.653 489.899 285.653C493.159 285.653 496.057 285.11 498.593 284.023C501.149 282.915 503.152 281.381 504.601 279.421C506.071 277.44 506.806 275.138 506.806 272.518C506.806 270.302 506.231 268.448 505.081 266.957C503.93 265.444 502.321 264.176 500.255 263.153C498.209 262.131 495.833 261.225 493.127 260.437L485.297 258.136C480.162 256.602 476.178 254.482 473.344 251.776C470.51 249.07 469.093 245.618 469.093 241.42C469.093 237.905 470.031 234.815 471.906 232.152C473.802 229.467 476.359 227.379 479.576 225.888C482.815 224.375 486.448 223.619 490.475 223.619C494.544 223.619 498.145 224.364 501.277 225.856C504.409 227.347 506.892 229.403 508.724 232.024C510.578 234.624 511.568 237.585 511.696 240.909H505.911ZM528.323 290V224.545H549.449C554.094 224.545 557.972 225.44 561.082 227.23C564.215 228.999 566.569 231.406 568.146 234.453C569.744 237.5 570.543 240.93 570.543 244.744C570.543 248.558 569.754 251.999 568.178 255.067C566.601 258.114 564.257 260.533 561.146 262.322C558.036 264.091 554.168 264.975 549.545 264.975H532.926V259.606H549.385C552.815 259.606 555.66 258.967 557.918 257.688C560.177 256.388 561.86 254.62 562.968 252.383C564.097 250.146 564.662 247.599 564.662 244.744C564.662 241.889 564.097 239.343 562.968 237.106C561.86 234.869 560.166 233.111 557.886 231.832C555.628 230.554 552.762 229.915 549.289 229.915H534.3V290H528.323ZM579.339 290H573.075L596.886 224.545H603.278L627.088 290H620.824L600.305 232.312H599.858L579.339 290ZM583.846 264.911H616.317V270.281H583.846V264.911ZM628.047 229.915V224.545H675.507V229.915H654.765V290H648.789V229.915H628.047ZM738.852 245H732.844C732.396 242.763 731.587 240.696 730.415 238.8C729.264 236.882 727.815 235.21 726.068 233.782C724.321 232.354 722.34 231.246 720.124 230.458C717.908 229.67 715.511 229.276 712.933 229.276C708.799 229.276 705.028 230.352 701.619 232.504C698.231 234.656 695.514 237.82 693.469 241.996C691.445 246.151 690.433 251.243 690.433 257.273C690.433 263.345 691.445 268.459 693.469 272.614C695.514 276.768 698.231 279.922 701.619 282.074C705.028 284.205 708.799 285.27 712.933 285.27C715.511 285.27 717.908 284.876 720.124 284.087C722.34 283.299 724.321 282.202 726.068 280.795C727.815 279.368 729.264 277.695 730.415 275.778C731.587 273.86 732.396 271.783 732.844 269.545H738.852C738.32 272.55 737.318 275.352 735.848 277.951C734.399 280.529 732.545 282.788 730.287 284.727C728.05 286.665 725.472 288.178 722.553 289.265C719.634 290.352 716.427 290.895 712.933 290.895C707.435 290.895 702.556 289.521 698.295 286.772C694.033 284.002 690.688 280.103 688.259 275.075C685.852 270.046 684.648 264.112 684.648 257.273C684.648 250.433 685.852 244.499 688.259 239.471C690.688 234.442 694.033 230.554 698.295 227.805C702.556 225.036 707.435 223.651 712.933 223.651C716.427 223.651 719.634 224.194 722.553 225.281C725.472 226.346 728.05 227.859 730.287 229.819C732.545 231.758 734.399 234.016 735.848 236.594C737.318 239.173 738.32 241.974 738.852 245ZM754.241 290V224.545H760.217V254.556H797.355V224.545H803.332V290H797.355V259.925H760.217V290H754.241Z" fill="#363636"/>
<path d="M456.385 100.875C455.349 97.6223 453.954 94.7088 452.203 92.1349C450.487 89.5253 448.431 87.3089 446.036 85.4858C443.641 83.6269 440.906 82.2148 437.832 81.2496C434.793 80.2844 431.451 79.8018 427.805 79.8018C421.62 79.8018 416.044 81.3926 411.075 84.5742C406.106 87.7558 402.173 92.4209 399.278 98.5696C396.418 104.683 394.988 112.172 394.988 121.037C394.988 129.939 396.436 137.464 399.331 143.612C402.227 149.761 406.195 154.426 411.235 157.608C416.276 160.789 422.013 162.38 428.448 162.38C434.418 162.38 439.619 161.165 444.052 158.734C448.521 156.303 451.97 152.871 454.401 148.438C456.868 143.97 458.101 138.715 458.101 132.673L462.391 133.478H430.968V119.804H474.134V132.298C474.134 141.521 472.168 149.529 468.236 156.321C464.339 163.077 458.941 168.296 452.042 171.978C445.178 175.66 437.314 177.501 428.448 177.501C418.51 177.501 409.788 175.214 402.281 170.638C394.809 166.062 388.982 159.574 384.8 151.173C380.617 142.736 378.526 132.727 378.526 121.145C378.526 112.386 379.741 104.522 382.172 97.5508C384.603 90.5799 388.017 84.6636 392.414 79.8018C396.847 74.9044 402.048 71.1687 408.018 68.5948C414.024 65.9852 420.584 64.6804 427.697 64.6804C433.632 64.6804 439.155 65.5562 444.267 67.3079C449.414 69.0595 453.99 71.544 457.994 74.7614C462.033 77.9787 465.376 81.8037 468.021 86.2365C470.667 90.6335 472.454 95.5131 473.384 100.875H456.385ZM517.022 66.1818V176H500.453V66.1818H517.022ZM556.035 66.1818L586.6 155.624H587.833L618.398 66.1818H636.307L596.788 176H577.645L538.125 66.1818H556.035ZM655.521 176H637.933L677.452 66.1818H696.595L736.115 176H718.527L687.48 86.1293H686.622L655.521 176ZM658.47 132.995H715.524V146.937H658.47V132.995Z" fill="#363636"/>
<path d="M310 170C310 247.321 247.321 310 170 310C92.6804 310 30 247.321 30 170C30 92.6795 92.6804 30 170 30C247.321 30 310 92.6795 310 170Z" fill="#2B66A5"/>
<path d="M266.755 123.55C266.755 132.24 259.695 139.285 250.981 139.285C242.269 139.285 235.206 132.24 235.206 123.55C235.206 114.859 242.269 107.817 250.981 107.817C259.695 107.817 266.755 114.859 266.755 123.55Z" fill="#3C97EA"/>
<path d="M247.099 154.619H138.101V180.837H187.051L179.475 213.607H146.25C133.967 213.607 122.411 208.835 113.723 200.181C105.036 191.505 100.251 179.979 100.251 167.728C100.251 142.428 120.886 121.848 146.25 121.848H212.872L218.936 95.6294H146.25C106.392 95.6294 73.9663 127.971 73.9663 167.728C73.9663 186.973 81.4794 205.081 95.1383 218.723C108.802 232.331 126.955 239.826 146.25 239.826H200.389L214.024 180.837H233.709L220.083 239.826H247.059L266.754 154.619H247.099Z" fill="white"/>
</svg>
