<svg width="340" height="340" viewBox="0 0 340 340" fill="none" xmlns="http://www.w3.org/2000/svg">
<g clip-path="url(#clip0_101_10)">
<path d="M310 170C310 247.321 247.321 310 170 310C92.6804 310 30 247.321 30 170C30 92.6795 92.6804 30 170 30C247.321 30 310 92.6795 310 170Z" fill="#2B66A5"/>
<path d="M266.755 123.55C266.755 132.24 259.695 139.285 250.981 139.285C242.269 139.285 235.206 132.24 235.206 123.55C235.206 114.859 242.269 107.817 250.981 107.817C259.695 107.817 266.755 114.859 266.755 123.55Z" fill="#3C97EA"/>
<path d="M247.099 154.619H138.101V180.837H187.051L179.475 213.607H146.25C133.967 213.607 122.411 208.835 113.723 200.181C105.036 191.505 100.251 179.979 100.251 167.728C100.251 142.428 120.886 121.848 146.25 121.848H212.872L218.936 95.6294H146.25C106.392 95.6294 73.9663 127.971 73.9663 167.728C73.9663 186.973 81.4794 205.081 95.1383 218.723C108.802 232.331 126.955 239.826 146.25 239.826H200.389L214.024 180.837H233.709L220.083 239.826H247.059L266.754 154.619H247.099Z" fill="white"/>
</g>
<defs>
<clipPath id="clip0_101_10">
<rect width="280" height="280" fill="white" transform="translate(30 30)"/>
</clipPath>
</defs>
</svg>
