<svg width="36" height="36" viewBox="0 0 36 36" fill="none" xmlns="http://www.w3.org/2000/svg">
<path d="M34.875 15.1875V20.8125C34.875 22.3638 33.6138 23.625 32.0625 23.625H31.2968C30.2212 29.9993 24.6764 34.875 18 34.875C17.3782 34.875 16.875 34.3718 16.875 33.75C16.875 33.1282 17.3782 32.625 18 32.625C24.2029 32.625 29.25 27.5779 29.25 21.375V14.625C29.25 8.42212 24.2029 3.375 18 3.375C11.7971 3.375 6.75 8.42212 6.75 14.625V22.5C6.75 23.1218 6.24683 23.625 5.625 23.625H3.9375C2.38623 23.625 1.125 22.3638 1.125 20.8125V15.1875C1.125 13.6362 2.38623 12.375 3.9375 12.375H4.70325C5.77881 6.00073 11.3236 1.125 18 1.125C24.6764 1.125 30.2212 6.00073 31.2968 12.375H32.0625C33.6138 12.375 34.875 13.6362 34.875 15.1875ZM18 5.625C13.0375 5.625 9 9.66248 9 14.625V20.25C9 25.2125 13.0375 29.25 18 29.25C22.9625 29.25 27 25.2125 27 20.25V14.625C27 9.66248 22.9625 5.625 18 5.625Z" fill="#BEC6D3"/>
</svg>
