<svg width="24" height="24" viewBox="0 0 24 24" fill="none" xmlns="http://www.w3.org/2000/svg">
<path d="M2.42825 6H21.676C22.0899 6 22.4004 5.625 22.4004 5C22.4004 4.375 22.0899 4 21.5725 4H2.42825C2.01432 4 1.60039 4.375 1.60039 5C1.60039 5.625 2.01432 6 2.42825 6Z" fill="#4E6372"/>
<path d="M2.42825 13.2002H21.676C22.0899 13.2002 22.4004 12.8252 22.4004 12.2002C22.4004 11.5752 22.0899 11.2002 21.5725 11.2002H2.42825C2.01432 11.2002 1.60039 11.5752 1.60039 12.2002C1.60039 12.8252 2.01432 13.2002 2.42825 13.2002Z" fill="#4E6372"/>
<path d="M8.02825 20.4004H21.676C22.0899 20.4004 22.4004 20.0254 22.4004 19.4004C22.4004 18.7754 22.0899 18.4004 21.5725 18.4004H8.02825C7.61432 18.4004 7.20039 18.7754 7.20039 19.4004C7.20039 20.0254 7.61432 20.4004 8.02825 20.4004Z" fill="#4E6372"/>
</svg>
