<svg width="24" height="24" viewBox="0 0 24 24" fill="none" xmlns="http://www.w3.org/2000/svg">
<path d="M2.97673 22C2.78356 22 2.59472 21.9428 2.43409 21.8355C2.27347 21.7282 2.14827 21.5756 2.07435 21.3972C2.00042 21.2187 1.98108 21.0223 2.01877 20.8329C2.05647 20.6434 2.14951 20.4694 2.28612 20.3328L20.3327 2.28606C20.5159 2.1029 20.7643 2 21.0233 2C21.2824 2 21.5308 2.1029 21.7139 2.28606C21.8971 2.46923 22 2.71765 22 2.97668C22 3.23572 21.8971 3.48414 21.7139 3.66731L3.66734 21.7141C3.57673 21.8049 3.46908 21.8769 3.35056 21.9259C3.23205 21.975 3.105 22.0002 2.97673 22Z" fill="#4E6372"/>
<path d="M21.0233 22C20.895 22.0002 20.768 21.975 20.6494 21.9259C20.5309 21.8769 20.4233 21.8049 20.3327 21.7141L2.28606 3.66731C2.1029 3.48414 2 3.23572 2 2.97668C2 2.71765 2.1029 2.46923 2.28606 2.28606C2.46922 2.1029 2.71765 2 2.97668 2C3.23571 2 3.48413 2.1029 3.66729 2.28606L21.7139 20.3328C21.8505 20.4694 21.9435 20.6434 21.9812 20.8329C22.0189 21.0223 21.9996 21.2187 21.9257 21.3972C21.8517 21.5756 21.7265 21.7282 21.5659 21.8355C21.4053 21.9428 21.2164 22 21.0233 22Z" fill="#4E6372"/>
</svg>
