<svg width="200" height="176" viewBox="0 0 200 176" fill="none" xmlns="http://www.w3.org/2000/svg">
<path d="M200 62.4479V175.551H47.9154C45.3682 175.551 43.3076 173.486 43.3076 170.943V46.8666C43.3076 44.3193 45.3682 42.2588 47.9154 42.2588H103.795C105.014 42.2588 106.185 42.7416 107.05 43.6068L119.935 56.492C120.801 57.3572 121.972 57.84 123.195 57.84H195.392C197.935 57.8404 200 59.9049 200 62.4479Z" fill="#756F6F"/>
<path d="M126.588 80.3052C132.791 80.3052 137.82 75.2762 137.82 69.0728C137.82 62.8693 132.791 57.8403 126.588 57.8403C120.384 57.8403 115.355 62.8693 115.355 69.0728C115.355 75.2762 120.384 80.3052 126.588 80.3052Z" fill="#5B5555"/>
<path d="M85.3566 95.5869C87.3848 97.6111 85.9523 101.08 83.0832 101.08H47.6145C46.1617 101.08 44.725 101.007 43.3086 100.871V46.8666C43.3086 44.3193 45.3691 42.2588 47.9164 42.2588H87.9605C89.8277 47.0916 90.8539 52.3475 90.8539 57.8404C90.8539 69.7803 86.0129 80.5889 78.1898 88.4158L85.3566 95.5869Z" fill="#5B5555"/>
<path d="M200.001 62.4477V175.55H184.701V62.4477C184.701 59.9043 182.64 57.8398 180.093 57.8398H195.392C197.936 57.8402 200.001 59.9047 200.001 62.4477Z" fill="#5B5555"/>
<path d="M153.008 117.772L200 175.552H45.4975C44.1108 175.552 42.7983 174.927 41.9233 173.851L1.04162 123.586C-1.40681 120.575 0.735374 116.072 4.61584 116.072H149.433C150.82 116.072 152.133 116.696 153.008 117.772Z" fill="#64B9FC"/>
<path d="M200 175.551H180.185L133.196 117.772C132.318 116.698 131.006 116.07 129.622 116.07H149.433C150.821 116.07 152.133 116.698 153.006 117.772L200 175.551Z" fill="#31A7FB"/>
<path d="M165.01 161.999H124.359C123.103 161.999 121.918 161.412 121.157 160.412L110.739 146.723C109.731 145.399 110.676 143.493 112.34 143.493H152.991C154.248 143.493 155.432 144.08 156.194 145.08L166.612 158.768C167.62 160.093 166.675 161.999 165.01 161.999Z" fill="#F8F3F1"/>
<path d="M165.011 161.998H151.932C153.598 161.998 154.544 160.094 153.534 158.767L143.115 145.081C142.355 144.079 141.171 143.491 139.916 143.491H152.991C154.25 143.491 155.433 144.079 156.194 145.081L166.612 158.767C167.618 160.095 166.677 161.998 165.011 161.998Z" fill="#EFE2DD"/>
<path d="M100 165.016H81.5346C79.8678 165.016 78.5166 163.665 78.5166 161.998C78.5166 160.331 79.8678 158.98 81.5346 158.98H100C101.667 158.98 103.018 160.331 103.018 161.998C103.018 163.665 101.667 165.016 100 165.016Z" fill="#F8F3F1"/>
<path d="M93.2611 155.006H85.4232C83.7565 155.006 82.4053 153.654 82.4053 151.988C82.4053 150.321 83.7565 148.97 85.4232 148.97H93.2611C94.9279 148.97 96.2791 150.321 96.2791 151.988C96.2795 153.654 94.9283 155.006 93.2611 155.006Z" fill="#F8F3F1"/>
<path d="M90.8529 43.6877C90.8529 19.8072 71.4939 0.448242 47.6139 0.448242C23.7557 0.448242 4.37402 19.8299 4.37402 43.6881C4.37441 67.5686 23.733 86.9271 47.6135 86.9271H83.0822C85.9498 86.9271 87.3861 83.46 85.3584 81.4322L78.1885 74.2623C86.0135 66.4381 90.8529 55.6279 90.8529 43.6877Z" fill="#31A7FB"/>
<path d="M85.3566 81.4338C87.3848 83.4619 85.9523 86.9268 83.0832 86.9268H68.4996C71.3648 86.9268 72.8016 83.4619 70.773 81.4338L66.327 76.9854C64.848 75.5057 64.7543 73.144 66.1027 71.5443C72.4457 64.0209 76.2699 54.299 76.2699 43.6873C76.2699 22.2951 60.7328 4.52833 40.3262 1.06348C42.3008 0.724812 44.3203 0.523249 46.3754 0.465046C70.557 -0.216204 90.4449 18.7627 90.8473 42.9506C91.0508 55.1815 86.1727 66.2787 78.1895 74.2623L85.3566 81.4338Z" fill="#1C96F9"/>
<path d="M56.1503 43.688L64.1937 35.6446C66.5511 33.2872 66.5511 29.4653 64.1937 27.1083C61.8366 24.7509 58.0144 24.7509 55.6573 27.1083L47.614 35.1517L39.571 27.1079C37.214 24.7505 33.3917 24.7505 31.0347 27.1079C28.6772 29.4649 28.6772 33.2868 31.0347 35.6442L39.078 43.6876L31.0347 51.731C28.6772 54.0884 28.6772 57.9103 31.0347 60.2673C32.2132 61.4462 33.7581 62.0353 35.303 62.0353C36.848 62.0353 38.3925 61.4458 39.5714 60.2673L47.6147 52.2239L55.6581 60.2673C56.837 61.4462 58.3812 62.0353 59.9265 62.0353C61.471 62.0353 63.0159 61.4458 64.1948 60.2673C66.5523 57.9103 66.5523 54.0884 64.1948 51.731L56.1503 43.688Z" fill="#F8F3F1"/>
<path d="M126.588 70.7969C132.791 70.7969 137.82 65.7679 137.82 59.5644C137.82 53.361 132.791 48.332 126.588 48.332C120.384 48.332 115.355 53.361 115.355 59.5644C115.355 65.7679 120.384 70.7969 126.588 70.7969Z" fill="#BCEA73"/>
<path d="M137.82 59.5634C137.82 65.7692 132.789 70.7997 126.588 70.7997C124.509 70.7997 122.559 70.2349 120.891 69.2442C125.3 68.2278 128.585 64.2806 128.585 59.5634C128.585 54.8513 125.305 50.8989 120.896 49.8825C122.564 48.897 124.509 48.3325 126.588 48.3325C132.789 48.3321 137.82 53.3626 137.82 59.5634Z" fill="#99D53B"/>
<path d="M165.926 46.0968C170.821 46.0968 174.79 42.1282 174.79 37.2327C174.79 32.3372 170.821 28.3687 165.926 28.3687C161.03 28.3687 157.062 32.3372 157.062 37.2327C157.062 42.1282 161.03 46.0968 165.926 46.0968Z" fill="#BCEA73"/>
<path d="M174.789 37.2319C174.789 42.1292 170.82 46.0987 165.926 46.0987C164.286 46.0987 162.746 45.653 161.43 44.8714C164.909 44.0694 167.502 40.9542 167.502 37.2319C167.502 33.5132 164.913 30.3944 161.434 29.5921C162.75 28.8144 164.285 28.3687 165.926 28.3687C170.82 28.3687 174.789 32.3386 174.789 37.2319Z" fill="#99D53B"/>
<path d="M145.672 21.031L147.305 19.3981C148.484 18.2192 148.484 16.3087 147.305 15.1298C146.126 13.9513 144.215 13.9513 143.036 15.1298L141.404 16.7626L139.771 15.1298C138.592 13.9509 136.681 13.9509 135.502 15.1298C134.323 16.3083 134.323 18.2192 135.502 19.3981L137.135 21.031L135.502 22.6638C134.323 23.8427 134.323 25.7532 135.502 26.9321C136.092 27.5216 136.864 27.8161 137.636 27.8161C138.409 27.8161 139.181 27.5212 139.77 26.9321L141.403 25.2993L143.036 26.9321C143.625 27.5216 144.398 27.8161 145.17 27.8161C145.942 27.8161 146.715 27.5212 147.304 26.9321C148.483 25.7536 148.483 23.8427 147.304 22.6638L145.672 21.031Z" fill="#64B9FC"/>
<path d="M22.598 89.5484C21.4195 88.3699 19.5086 88.3699 18.3297 89.5484L15.4867 92.3914L12.6438 89.5484C11.4652 88.3699 9.5543 88.3699 8.37539 89.5484C7.19648 90.727 7.19648 92.6379 8.37539 93.8168L11.2184 96.6598L8.37539 99.5027C7.19648 100.681 7.19648 102.592 8.37539 103.771C8.96484 104.361 9.73711 104.655 10.5094 104.655C11.2816 104.655 12.0543 104.36 12.6434 103.771L15.4863 100.928L18.3293 103.771C18.9187 104.361 19.691 104.655 20.4633 104.655C21.2355 104.655 22.0082 104.36 22.5973 103.771C23.7762 102.593 23.7762 100.682 22.5973 99.5027L19.7543 96.6598L22.5973 93.8168C23.7766 92.6379 23.7766 90.727 22.598 89.5484Z" fill="#A8E7EF"/>
</svg>
