<svg width="17" height="19" viewBox="0 0 17 19" fill="none" xmlns="http://www.w3.org/2000/svg">
<path d="M15.071 2.42898C17.1924 4.5503 17.1924 8.08584 15.071 10.2072L7.64642 17.6318C6.09079 19.1874 3.5452 19.1874 1.98957 17.6318C0.433931 16.0761 0.433931 13.5306 1.98957 11.9749L7.99997 5.96452C8.98992 4.97457 10.5456 4.97457 11.5355 5.96452C12.5255 6.95447 12.5255 8.5101 11.5355 9.50005L6.23221 14.8034L4.81799 13.3891L10.192 8.01513C10.6163 7.59086 9.90916 6.88375 9.4849 7.30802L3.40378 13.3891C2.62596 14.167 2.62596 15.4397 3.40378 16.2176C4.1816 16.9954 5.45439 16.9954 6.23221 16.2176L13.6568 8.79294C15.0003 7.44944 15.0003 5.1867 13.6568 3.8432C12.3133 2.49969 10.0506 2.49969 8.70708 3.8432L1.98957 10.5607L0.575353 9.1465L7.29287 2.42898C9.41419 0.307662 12.9497 0.307662 15.071 2.42898Z" fill="#626976"/>
</svg>
