<svg width="24" height="24" viewBox="0 0 24 24" fill="none" xmlns="http://www.w3.org/2000/svg">
<path d="M10.2 14.6C8.49995 14.6 7.19995 16 7.19995 17.6C7.19995 19.3 8.59995 20.6 10.2 20.6C11.8 20.6 13.2 19.2 13.2 17.6C13.2 16 11.9 14.6 10.2 14.6ZM10.2 18.9C9.49995 18.9 8.89995 18.3 8.89995 17.6C8.89995 16.9 9.49995 16.3 10.2 16.3C10.9 16.3 11.5 16.9 11.5 17.6C11.5 18.3 10.9 18.9 10.2 18.9Z" fill="#979DA6"/>
<path d="M23 11H3C2.7 11 2.4 11.1 2.2 11.3C2 11.5 1.9 11.8 1.9 12.1V15.4H1.6C1.4 15.4 1.3 15.5 1.2 15.6C1.1 15.7 1 15.9 1 16.1V17.2H6.3C6.3 16.2 6.7 15.2 7.4 14.4C8.1 13.7 9.1 13.3 10.1 13.3C11.1 13.3 12.1 13.7 12.8 14.4C13.5 15.1 13.9 16.1 13.9 17.2H23V11Z" fill="#979DA6"/>
<path d="M20 5V6H17H8H5V5L2 6.9L5 9V8H8H17H20V9L23 7.1L20 5Z" fill="#979DA6"/>
</svg>
