<svg width="24" height="24" viewBox="0 0 24 24" fill="none" xmlns="http://www.w3.org/2000/svg">
<path d="M10.2 12.6C8.49995 12.6 7.19995 14 7.19995 15.6C7.19995 17.3 8.59995 18.6 10.2 18.6C11.8 18.6 13.2 17.2 13.2 15.6C13.2 14 11.9 12.6 10.2 12.6ZM10.2 16.9C9.49995 16.9 8.89995 16.3 8.89995 15.6C8.89995 14.9 9.49995 14.3 10.2 14.3C10.9 14.3 11.5 14.9 11.5 15.6C11.5 16.3 10.9 16.9 10.2 16.9Z" fill="#979DA6"/>
<path d="M23 9H3C2.7 9 2.4 9.1 2.2 9.3C2 9.5 1.9 9.8 1.9 10.1V13.4H1.6C1.4 13.4 1.3 13.5 1.2 13.6C1.1 13.7 1 13.9 1 14.1V15.2H6.3C6.3 14.2 6.7 13.2 7.4 12.4C8.1 11.7 9.1 11.3 10.1 11.3C11.1 11.3 12.1 11.7 12.8 12.4C13.5 13.1 13.9 14.1 13.9 15.2H23V9Z" fill="#979DA6"/>
</svg>
