<svg width="24" height="24" viewBox="0 0 24 24" fill="none" xmlns="http://www.w3.org/2000/svg">
<path fill-rule="evenodd" clip-rule="evenodd" d="M11 5H7.2L4.2 10H19.8L16.8 5H13H11ZM11 3H13H16.8C17.5 3 18.2 3.4 18.6 4.1L22 10V20C22 20.6 21.6 21 21 21H20C19.4 21 19 20.6 19 20V19H5V20C5 20.6 4.6 21 4 21H3C2.4 21 2 20.6 2 20V10L5.4 4.1C5.8 3.4 6.5 3 7.2 3H11ZM16.9 13C16.4 13 16 13.4 16 13.9V14.1C16 14.6 16.4 15 16.9 15H19.1C19.6 15 20 14.6 20 14.1V13.9C20 13.4 19.6 13 19.1 13H16.9ZM8 13.9C8 13.4 7.6 13 7.1 13H4.9C4.86875 13 4.83789 13.0016 4.8075 13.0046C4.35156 13.0504 4 13.4312 4 13.9V14.1C4 14.6 4.4 15 4.9 15H7.1C7.13125 15 7.16211 14.9984 7.1925 14.9954C7.64844 14.9496 8 14.5688 8 14.1V13.9Z" fill="#979DA6"/>
</svg>
